<?xml version="1.0" encoding="UTF-8" standalone="no"?>
<!-- Created with Inkscape (http://www.inkscape.org/) -->

<svg
   version="1.1"
   id="svg2"
   width="91.304993"
   height="76.307755"
   viewBox="0 0 91.30499 76.307754"
   sodipodi:docname="original.eps"
   inkscape:version="1.2.1 (9c6d41e410, 2022-07-14)"
   xmlns:inkscape="http://www.inkscape.org/namespaces/inkscape"
   xmlns:sodipodi="http://sodipodi.sourceforge.net/DTD/sodipodi-0.dtd"
   xmlns="http://www.w3.org/2000/svg"
   xmlns:svg="http://www.w3.org/2000/svg">
  <defs
     id="defs6" />
  <sodipodi:namedview
     id="namedview4"
     pagecolor="#505050"
     bordercolor="#eeeeee"
     borderopacity="1"
     inkscape:showpageshadow="0"
     inkscape:pageopacity="0"
     inkscape:pagecheckerboard="0"
     inkscape:deskcolor="#505050"
     showgrid="false"
     inkscape:zoom="2.9197671"
     inkscape:cx="125.35246"
     inkscape:cy="40.927922"
     inkscape:window-width="1804"
     inkscape:window-height="876"
     inkscape:window-x="2027"
     inkscape:window-y="0"
     inkscape:window-maximized="0"
     inkscape:current-layer="g12" />
  <g
     id="g10"
     inkscape:groupmode="layer"
     inkscape:label="Page 1"
     transform="matrix(1.3333333,0,0,-1.3333333,-672.16661,112.4512)">
    <g
       id="g12"
       transform="scale(0.1)">
      <path
         d="m 5721.9418,693.54961 -91.74,91.74 0.87,0.88 -41.9,47.13 c -27.93,22.69 -59.34,0 -59.34,0 0,0 -413.7,-410.211 -434.65,-433.851 -20.95,-23.649 -87.28,-98.547 -33.16,-122.989 54.11,-24.441 141.38,36.661 183.28,136.161 34.34,81.558 100.32,106.8 123,113.257 l 92.98,-92.976 c 5.46,-5.461 14.3,-5.461 19.75,0 5.45,5.449 5.45,14.289 0,19.75 l -90.1,90.09 20.27,20.547 90.24,-90.239 c 5.45,-5.461 14.29,-5.461 19.74,0 5.46,5.45 5.46,14.289 0,19.75 l -90.37,90.371 20.27,20.539 90.51,-90.511 c 5.45,-5.457 14.29,-5.457 19.74,0 5.46,5.461 5.46,14.293 0,19.75 l -90.64,90.64 20.27,20.539 90.78,-90.777 c 5.45,-5.461 14.29,-5.461 19.74,0 5.46,5.449 5.46,14.301 0,19.75 l -90.91,90.918 20.26,20.539 91.06,-91.058 c 5.45,-5.461 14.3,-5.461 19.75,0 5.45,5.46 5.45,14.3 0,19.75 l -91.2,91.191 20.27,20.539 91.33,-91.32 c 5.45,-5.461 14.3,-5.461 19.75,0 5.46,5.449 5.46,14.289 0,19.742 l -91.46,91.469 20.26,20.539 91.6,-91.598 c 5.46,-5.461 14.3,-5.461 19.75,0 5.46,5.449 5.46,14.289 0,19.738"
         style="fill:#c20114;fill-opacity:1;fill-rule:nonzero;stroke:none"
         id="path232-1"
         inkscape:export-filename="comb-red.png"
         inkscape:export-xdpi="580.37366"
         inkscape:export-ydpi="580.37366" />
    </g>
  </g>
</svg>
