<?xml version="1.0" encoding="UTF-8" standalone="no"?>
<!-- Created with Inkscape (http://www.inkscape.org/) -->

<svg
   version="1.1"
   id="svg9"
   width="93.767647"
   height="22.930788"
   viewBox="0 0 93.767643 22.930787"
   sodipodi:docname="original.eps"
   xmlns:inkscape="http://www.inkscape.org/namespaces/inkscape"
   xmlns:sodipodi="http://sodipodi.sourceforge.net/DTD/sodipodi-0.dtd"
   xmlns="http://www.w3.org/2000/svg"
   xmlns:svg="http://www.w3.org/2000/svg">
  <defs
     id="defs13" />
  <sodipodi:namedview
     id="namedview11"
     pagecolor="#505050"
     bordercolor="#eeeeee"
     borderopacity="1"
     inkscape:showpageshadow="0"
     inkscape:pageopacity="0"
     inkscape:pagecheckerboard="0"
     inkscape:deskcolor="#505050"
     showgrid="false" />
  <g
     id="g17"
     inkscape:groupmode="layer"
     inkscape:label="Page 1"
     transform="matrix(1.3333333,0,0,-1.3333333,-443.19161,911.60022)">
    <g
       id="g19"
       transform="scale(0.1)">
      <path
         d="m 4026.9759,6743.8934 c -3.34,45.61 -47.09,43.36 -65.28,41.97 -18.19,-1.4 -9.79,-16.77 -9.79,-16.77 18.55,7.87 62.18,1.17 47.57,-44.79 -12.05,-37.87 -65.77,-7 -65.77,-7 -29.02,15.11 -151.1,104.94 -187.48,117.52 -36.38,12.6 -65.11,-33.57 -65.11,-33.57 -2.18,-2.4 -3.97,-4.61 -5.55,-6.72 -1.58,2.11 -3.37,4.32 -5.55,6.72 0,0 -28.73,46.17 -65.11,33.57 -36.38,-12.58 -158.46,-102.41 -187.49,-117.52 0,0 -53.71,-30.87 -65.76,7 -14.62,45.96 29.02,52.66 47.57,44.79 0,0 8.4,15.37 -9.79,16.77 -18.19,1.39 -61.94,3.64 -65.28,-41.97 -4.3,-58.87 55.8,-72.54 94.67,-75.47 44.77,-3.4 102.13,-16.89 201.47,50.28 0,0 38.36,18.7 55.27,39.97 16.91,-21.27 55.27,-39.97 55.27,-39.97 99.34,-67.17 156.7,-53.68 201.47,-50.28 38.86,2.93 98.97,16.6 94.67,75.47"
         style="fill:#eeebf3;fill-opacity:1;fill-rule:nonzero;stroke:none"
         id="path123-3"
         inkscape:export-filename="moustach-white.svg"
         inkscape:export-xdpi="96"
         inkscape:export-ydpi="96" />
    </g>
  </g>
</svg>
