<?xml version="1.0" encoding="UTF-8" standalone="no"?>
<!-- Created with Inkscape (http://www.inkscape.org/) -->

<svg
   version="1.1"
   id="svg9"
   width="50.055744"
   height="113.30134"
   viewBox="0 0 50.055742 113.30133"
   sodipodi:docname="original.eps"
   xmlns:inkscape="http://www.inkscape.org/namespaces/inkscape"
   xmlns:sodipodi="http://sodipodi.sourceforge.net/DTD/sodipodi-0.dtd"
   xmlns="http://www.w3.org/2000/svg"
   xmlns:svg="http://www.w3.org/2000/svg">
  <defs
     id="defs13" />
  <sodipodi:namedview
     id="namedview11"
     pagecolor="#505050"
     bordercolor="#eeeeee"
     borderopacity="1"
     inkscape:showpageshadow="0"
     inkscape:pageopacity="0"
     inkscape:pagecheckerboard="0"
     inkscape:deskcolor="#505050"
     showgrid="false" />
  <g
     id="g17"
     inkscape:groupmode="layer"
     inkscape:label="Page 1"
     transform="matrix(1.3333333,0,0,-1.3333333,-139.08355,386.98637)">
    <g
       id="g19"
       transform="scale(0.1)">
      <path
         d="m 1361.1466,2772.988 h -260.625 c -10.793,0 -19.622,8.83 -19.622,19.62 0,10.79 8.829,19.62 19.622,19.62 h 260.625 c 10.792,0 19.621,-8.83 19.621,-19.62 0,-10.79 -8.829,-19.62 -19.621,-19.62 z m -0.504,129.21 v -19.63 h -8.352 v 19.83 h -4.871 v -19.83 h -8.356 v 19.83 h -4.871 v -19.83 h -8.351 v 19.83 h -4.871 v -19.83 h -8.356 v 19.83 h -4.871 v -19.83 h -8.351 v 19.83 h -4.871 v -19.83 h -8.352 v 19.83 h -4.875 v -19.83 h -8.352 v 19.83 h -4.871 v -19.83 h -8.351 v 19.83 h -4.875 v -19.83 h -8.352 v 19.83 h -4.871 v -19.83 h -8.351 v 19.83 h -4.875 v -19.83 h -8.352 v 19.83 h -4.871 v -19.83 h -8.352 v 19.83 h -4.875 v -19.83 h -8.351 v 19.83 h -4.871 v -19.83 h -8.352 v 19.83 h -4.871 v -19.83 h -8.355 v 19.83 h -4.872 v -19.83 h -8.351 v 19.83 h -4.871 v -19.83 h -8.356 v 19.83 h -4.871 v -19.83 h -8.351 v 19.83 h -4.871 v -19.83 h -8.356 v 19.83 h -4.871 v -19.83 h -8.352 v 19.63 c -32.195,-2.12 -57.898,-29.04 -57.898,-61.75 v -103.87 c 0,-22.96 12.68,-43.07 31.359,-53.77 2.047,3.75 4.164,7.34 6.414,10.62 23.563,34.27 51.407,34.27 51.407,34.27 h 98.527 98.527 c 0,0 27.844,0 51.407,-34.27 2.25,-3.28 4.367,-6.87 6.414,-10.62 18.679,10.7 31.363,30.81 31.363,53.77 v 103.87 c 0,32.71 -25.707,59.63 -57.902,61.75"
         style="fill:#eeebf3;fill-opacity:1;fill-rule:nonzero;stroke:none"
         id="path253-9" />
      <path
         d="m 1230.8336,2575.278 c -78.609,0 -108.84,-102.79 -108.84,-102.79 0,129 108.84,149.15 108.84,149.15 0,0 108.84,-20.15 108.84,-149.15 0,0 -30.231,102.79 -108.84,102.79 z m -28.219,-130.05 c 0,25.6 12.633,46.35 28.219,46.35 15.586,0 28.219,-20.75 28.219,-46.35 0,-25.61 -12.633,-46.36 -28.219,-46.36 -15.586,0 -28.219,20.75 -28.219,46.36 z m 113.895,-218.42 h -171.352 c -10.601,0 -19.2771,8.67 -19.2771,19.27 0,10.6 8.6761,19.28 19.2771,19.28 h 171.352 c 10.6009,0 19.277,-8.68 19.277,-19.28 0,-10.6 -8.6761,-19.27 -19.277,-19.27 z m -17.137,-66.4 h -137.078 c -8.246,0 -14.996,6.74 -14.996,14.99 0,8.25 6.75,14.99 14.996,14.99 h 137.078 c 8.246,0 14.996,-6.74 14.996,-14.99 0,-8.25 -6.75,-14.99 -14.996,-14.99 z m 101.297,224.35 c -5.52,18.14 -22.699,62.48 -22.699,86.67 0,24.19 12.093,26.2 20.183,72.56 8.09,46.36 -4.058,104.81 -26.23,137.06 -22.172,32.25 -48.371,32.25 -48.371,32.25 h -92.719 -92.719 c 0,0 -26.203,0 -48.371,-32.25 -22.1721,-32.25 -34.32,-90.7 -26.2301,-137.06 8.0901,-46.36 20.183,-48.37 20.183,-72.56 0,-24.19 -17.1789,-68.53 -22.6989,-86.67 -5.519,-18.14 10.606,-195.29 46.887,-255.76 36.277,-60.46 122.9489,-76.36 122.9489,-76.36 0,0 86.672,15.9 122.9491,76.36 36.2809,60.47 52.4059,237.62 46.8869,255.76"
         style="fill:#eeebf3;fill-opacity:1;fill-rule:nonzero;stroke:none"
         id="path255-2"
         inkscape:export-filename="razor-white.svg "
         inkscape:export-xdpi="96"
         inkscape:export-ydpi="96" />
    </g>
  </g>
</svg>
