<?xml version="1.0" encoding="UTF-8" standalone="no"?>
<!-- Created with Inkscape (http://www.inkscape.org/) -->

<svg
   version="1.1"
   id="svg2"
   width="105.30103"
   height="105.30636"
   viewBox="0 0 105.30102 105.30636"
   sodipodi:docname="original.eps"
   inkscape:version="1.2.1 (9c6d41e410, 2022-07-14)"
   xmlns:inkscape="http://www.inkscape.org/namespaces/inkscape"
   xmlns:sodipodi="http://sodipodi.sourceforge.net/DTD/sodipodi-0.dtd"
   xmlns="http://www.w3.org/2000/svg"
   xmlns:svg="http://www.w3.org/2000/svg">
  <defs
     id="defs6" />
  <sodipodi:namedview
     id="namedview4"
     pagecolor="#505050"
     bordercolor="#eeeeee"
     borderopacity="1"
     inkscape:showpageshadow="0"
     inkscape:pageopacity="0"
     inkscape:pagecheckerboard="0"
     inkscape:deskcolor="#505050"
     showgrid="false"
     inkscape:zoom="2.9197671"
     inkscape:cx="125.35246"
     inkscape:cy="40.927922"
     inkscape:window-width="1804"
     inkscape:window-height="876"
     inkscape:window-x="2027"
     inkscape:window-y="0"
     inkscape:window-maximized="0"
     inkscape:current-layer="g12" />
  <g
     id="g10"
     inkscape:groupmode="layer"
     inkscape:label="Page 1"
     transform="matrix(1.3333333,0,0,-1.3333333,-800.68297,345.98666)">
    <g
       id="g12"
       transform="scale(0.1)">
      <path
         d="m 6296.59,1840.44 c -16.42,-3.45 -32.29,-0.28 -44.69,8.92 -2.02,1.5 -3.94,3.16 -5.71,4.92 -21.08,21.09 -21.39,57.99 -0.72,85.83 11.22,15.12 26.86,25.43 44.04,29.03 16.43,3.45 32.3,0.28 44.7,-8.92 2.02,-1.5 3.94,-3.16 5.7,-4.93 21.09,-21.08 21.4,-57.98 0.73,-85.83 -11.22,-15.11 -26.86,-25.42 -44.05,-29.02 z m 126.89,383.11 c -7.63,7.64 -7.63,20.02 0,27.65 7.64,7.63 20.01,7.63 27.65,0 7.63,-7.63 7.63,-20.01 0,-27.65 -7.64,-7.63 -20.01,-7.63 -27.65,0 z m -283.44,-178.01 c -27.85,-20.67 -64.74,-20.36 -85.83,0.73 -1.77,1.76 -3.42,3.68 -4.92,5.7 -19.48,26.24 -10.46,66.05 20.1,88.74 27.85,20.67 64.75,20.36 85.83,-0.72 1.77,-1.77 3.43,-3.69 4.93,-5.71 19.48,-26.24 10.46,-66.05 -20.11,-88.74 z m 227.86,-196.32 c 28.03,37.76 28.96,87.8 3.7,121.23 22.85,143.87 99.83,220.87 99.83,220.87 l 20.85,35.06 302.55,254.28 0.05,28.59 -206.89,-121.86 122.57,206.18 -29.97,1.33 -254.6,-302.93 -34.74,-20.47 c 0,0 -77,-76.98 -220.87,-99.83 -33.44,25.26 -83.47,24.33 -121.23,-3.7 -45.6,-33.85 -57.76,-94.97 -27.12,-136.24 2.48,-3.34 5.23,-6.53 8.17,-9.47 0.01,0 0,0 0,0 32.9,-32.9 88.82,-34.61 130.08,-3.98 33.22,24.67 48.68,63.8 42.78,99.19 17.5,13.88 54.11,39.87 93.76,49.76 35.34,8.82 64.06,21.15 91.28,20.94 0.21,-27.22 -12.12,-55.93 -20.94,-91.27 -9.88,-39.6 -35.81,-76.17 -49.7,-93.7 -11.24,1.9 -23.02,1.67 -34.92,-0.83 -25.32,-5.31 -48.16,-20.23 -64.33,-42.02 -30.63,-41.26 -28.92,-97.18 3.98,-130.07 2.93,-2.94 6.12,-5.7 9.47,-8.18 20.31,-15.08 45.85,-20.37 71.91,-14.89 25.31,5.31 48.16,20.23 64.33,42.01"
         style="fill:#393536;fill-opacity:1;fill-rule:nonzero;stroke:none"
         id="path278"
         inkscape:export-filename="scissors2.svg"
         inkscape:export-xdpi="455.81"
         inkscape:export-ydpi="455.81" />
    </g>
  </g>
</svg>
