<?xml version="1.0" encoding="UTF-8" standalone="no"?>
<!-- Created with Inkscape (http://www.inkscape.org/) -->

<svg
   width="27.860901mm"
   height="27.862305mm"
   viewBox="0 0 27.860901 27.862305"
   version="1.1"
   id="svg5"
   xml:space="preserve"
   xmlns:inkscape="http://www.inkscape.org/namespaces/inkscape"
   xmlns:sodipodi="http://sodipodi.sourceforge.net/DTD/sodipodi-0.dtd"
   xmlns="http://www.w3.org/2000/svg"
   xmlns:svg="http://www.w3.org/2000/svg"><sodipodi:namedview
     id="namedview7"
     pagecolor="#505050"
     bordercolor="#eeeeee"
     borderopacity="1"
     inkscape:showpageshadow="0"
     inkscape:pageopacity="0"
     inkscape:pagecheckerboard="0"
     inkscape:deskcolor="#505050"
     inkscape:document-units="mm"
     showgrid="false"
     inkscape:lockguides="true" /><defs
     id="defs2" /><g
     id="g19"
     transform="matrix(0.03527778,0,0,-0.03527778,71.769162,134.93297)"><path
       d="M 8600,0 H 0 V 8600 H 8600 V 0"
       style="fill:#a7a5a6;fill-opacity:1;fill-rule:nonzero;stroke:none"
       id="path21" /><path
       d="M 8500,100 H 100 V 8500 H 8500 V 100"
       style="fill:#f4f4f4;fill-opacity:1;fill-rule:nonzero;stroke:none"
       id="path23" /><path
       d="M 1500,7100 H 100 v 1400 h 1400 z"
       style="fill:none;stroke:#bdbcbc;stroke-width:10;stroke-linecap:butt;stroke-linejoin:miter;stroke-miterlimit:10;stroke-dasharray:none;stroke-opacity:1"
       id="path25" /><path
       d="M 2900,7100 H 1500 v 1400 h 1400 z"
       style="fill:none;stroke:#bdbcbc;stroke-width:10;stroke-linecap:butt;stroke-linejoin:miter;stroke-miterlimit:10;stroke-dasharray:none;stroke-opacity:1"
       id="path27" /><path
       d="M 4300,7100 H 2900 v 1400 h 1400 z"
       style="fill:none;stroke:#bdbcbc;stroke-width:10;stroke-linecap:butt;stroke-linejoin:miter;stroke-miterlimit:10;stroke-dasharray:none;stroke-opacity:1"
       id="path29" /><path
       d="M 5700,7100 H 4300 v 1400 h 1400 z"
       style="fill:none;stroke:#bdbcbc;stroke-width:10;stroke-linecap:butt;stroke-linejoin:miter;stroke-miterlimit:10;stroke-dasharray:none;stroke-opacity:1"
       id="path31" /><path
       d="M 7100,7100 H 5700 v 1400 h 1400 z"
       style="fill:none;stroke:#bdbcbc;stroke-width:10;stroke-linecap:butt;stroke-linejoin:miter;stroke-miterlimit:10;stroke-dasharray:none;stroke-opacity:1"
       id="path33" /><path
       d="M 8500,7100 H 7100 v 1400 h 1400 z"
       style="fill:none;stroke:#bdbcbc;stroke-width:10;stroke-linecap:butt;stroke-linejoin:miter;stroke-miterlimit:10;stroke-dasharray:none;stroke-opacity:1"
       id="path35" /><path
       d="M 1500,5700 H 100 v 1400 h 1400 z"
       style="fill:none;stroke:#bdbcbc;stroke-width:10;stroke-linecap:butt;stroke-linejoin:miter;stroke-miterlimit:10;stroke-dasharray:none;stroke-opacity:1"
       id="path37" /><path
       d="M 2900,5700 H 1500 v 1400 h 1400 z"
       style="fill:none;stroke:#bdbcbc;stroke-width:10;stroke-linecap:butt;stroke-linejoin:miter;stroke-miterlimit:10;stroke-dasharray:none;stroke-opacity:1"
       id="path39" /><path
       d="M 4300,5700 H 2900 v 1400 h 1400 z"
       style="fill:none;stroke:#bdbcbc;stroke-width:10;stroke-linecap:butt;stroke-linejoin:miter;stroke-miterlimit:10;stroke-dasharray:none;stroke-opacity:1"
       id="path41" /><path
       d="M 5700,5700 H 4300 v 1400 h 1400 z"
       style="fill:none;stroke:#bdbcbc;stroke-width:10;stroke-linecap:butt;stroke-linejoin:miter;stroke-miterlimit:10;stroke-dasharray:none;stroke-opacity:1"
       id="path43" /><path
       d="M 7100,5700 H 5700 v 1400 h 1400 z"
       style="fill:none;stroke:#bdbcbc;stroke-width:10;stroke-linecap:butt;stroke-linejoin:miter;stroke-miterlimit:10;stroke-dasharray:none;stroke-opacity:1"
       id="path45" /><path
       d="M 8500,5700 H 7100 v 1400 h 1400 z"
       style="fill:none;stroke:#bdbcbc;stroke-width:10;stroke-linecap:butt;stroke-linejoin:miter;stroke-miterlimit:10;stroke-dasharray:none;stroke-opacity:1"
       id="path47" /><path
       d="M 1500,4300 H 100 v 1400 h 1400 z"
       style="fill:none;stroke:#bdbcbc;stroke-width:10;stroke-linecap:butt;stroke-linejoin:miter;stroke-miterlimit:10;stroke-dasharray:none;stroke-opacity:1"
       id="path49" /><path
       d="M 2900,4300 H 1500 v 1400 h 1400 z"
       style="fill:none;stroke:#bdbcbc;stroke-width:10;stroke-linecap:butt;stroke-linejoin:miter;stroke-miterlimit:10;stroke-dasharray:none;stroke-opacity:1"
       id="path51" /><path
       d="M 7100,4300 H 5700 v 1400 h 1400 z"
       style="fill:none;stroke:#bdbcbc;stroke-width:10;stroke-linecap:butt;stroke-linejoin:miter;stroke-miterlimit:10;stroke-dasharray:none;stroke-opacity:1"
       id="path53" /><path
       d="M 8500,4300 H 7100 v 1400 h 1400 z"
       style="fill:none;stroke:#bdbcbc;stroke-width:10;stroke-linecap:butt;stroke-linejoin:miter;stroke-miterlimit:10;stroke-dasharray:none;stroke-opacity:1"
       id="path55" /><path
       d="M 1500,2900 H 100 v 1400 h 1400 z"
       style="fill:none;stroke:#bdbcbc;stroke-width:10;stroke-linecap:butt;stroke-linejoin:miter;stroke-miterlimit:10;stroke-dasharray:none;stroke-opacity:1"
       id="path57" /><path
       d="M 2900,2900 H 1500 v 1400 h 1400 z"
       style="fill:none;stroke:#bdbcbc;stroke-width:10;stroke-linecap:butt;stroke-linejoin:miter;stroke-miterlimit:10;stroke-dasharray:none;stroke-opacity:1"
       id="path59" /><path
       d="M 7100,2900 H 5700 v 1400 h 1400 z"
       style="fill:none;stroke:#bdbcbc;stroke-width:10;stroke-linecap:butt;stroke-linejoin:miter;stroke-miterlimit:10;stroke-dasharray:none;stroke-opacity:1"
       id="path61" /><path
       d="M 8500,2900 H 7100 v 1400 h 1400 z"
       style="fill:none;stroke:#bdbcbc;stroke-width:10;stroke-linecap:butt;stroke-linejoin:miter;stroke-miterlimit:10;stroke-dasharray:none;stroke-opacity:1"
       id="path63" /><path
       d="M 1500,1500 H 100 v 1400 h 1400 z"
       style="fill:none;stroke:#bdbcbc;stroke-width:10;stroke-linecap:butt;stroke-linejoin:miter;stroke-miterlimit:10;stroke-dasharray:none;stroke-opacity:1"
       id="path65" /><path
       d="M 2900,1500 H 1500 v 1400 h 1400 z"
       style="fill:none;stroke:#bdbcbc;stroke-width:10;stroke-linecap:butt;stroke-linejoin:miter;stroke-miterlimit:10;stroke-dasharray:none;stroke-opacity:1"
       id="path67" /><path
       d="M 4300,1500 H 2900 v 1400 h 1400 z"
       style="fill:none;stroke:#bdbcbc;stroke-width:10;stroke-linecap:butt;stroke-linejoin:miter;stroke-miterlimit:10;stroke-dasharray:none;stroke-opacity:1"
       id="path69" /><path
       d="M 5700,1500 H 4300 v 1400 h 1400 z"
       style="fill:none;stroke:#bdbcbc;stroke-width:10;stroke-linecap:butt;stroke-linejoin:miter;stroke-miterlimit:10;stroke-dasharray:none;stroke-opacity:1"
       id="path71" /><path
       d="M 7100,1500 H 5700 v 1400 h 1400 z"
       style="fill:none;stroke:#bdbcbc;stroke-width:10;stroke-linecap:butt;stroke-linejoin:miter;stroke-miterlimit:10;stroke-dasharray:none;stroke-opacity:1"
       id="path73" /><path
       d="M 8500,1500 H 7100 v 1400 h 1400 z"
       style="fill:none;stroke:#bdbcbc;stroke-width:10;stroke-linecap:butt;stroke-linejoin:miter;stroke-miterlimit:10;stroke-dasharray:none;stroke-opacity:1"
       id="path75" /><path
       d="M 1500,100 H 100 v 1400 h 1400 z"
       style="fill:none;stroke:#bdbcbc;stroke-width:10;stroke-linecap:butt;stroke-linejoin:miter;stroke-miterlimit:10;stroke-dasharray:none;stroke-opacity:1"
       id="path77" /><path
       d="M 2900,100 H 1500 v 1400 h 1400 z"
       style="fill:none;stroke:#bdbcbc;stroke-width:10;stroke-linecap:butt;stroke-linejoin:miter;stroke-miterlimit:10;stroke-dasharray:none;stroke-opacity:1"
       id="path79" /><path
       d="M 4300,100 H 2900 v 1400 h 1400 z"
       style="fill:none;stroke:#bdbcbc;stroke-width:10;stroke-linecap:butt;stroke-linejoin:miter;stroke-miterlimit:10;stroke-dasharray:none;stroke-opacity:1"
       id="path81" /><path
       d="M 5700,100 H 4300 v 1400 h 1400 z"
       style="fill:none;stroke:#bdbcbc;stroke-width:10;stroke-linecap:butt;stroke-linejoin:miter;stroke-miterlimit:10;stroke-dasharray:none;stroke-opacity:1"
       id="path83" /><path
       d="M 7100,100 H 5700 v 1400 h 1400 z"
       style="fill:none;stroke:#bdbcbc;stroke-width:10;stroke-linecap:butt;stroke-linejoin:miter;stroke-miterlimit:10;stroke-dasharray:none;stroke-opacity:1"
       id="path85" /><path
       d="M 8500,100 H 7100 v 1400 h 1400 z"
       style="fill:none;stroke:#bdbcbc;stroke-width:10;stroke-linecap:butt;stroke-linejoin:miter;stroke-miterlimit:10;stroke-dasharray:none;stroke-opacity:1"
       id="path87" /><path
       d="m 1151.86,5257.24 h -88.46 v 0.84 l -42.93,2.52 c -24.404,-2.52 -28.611,-28.61 -28.611,-28.61 0,0 -1.683,-397.24 -0.386,-418.75 1.3,-21.49 5.433,-89.59 43.307,-75.28 37.88,14.31 50.5,85.84 22.72,154.02 -22.76,55.88 -3.12,99.86 4.7,113.91 h 89.66 c 5.26,0 9.52,4.26 9.52,9.52 0,5.26 -4.26,9.52 -9.52,9.52 h -86.88 l -0.13,19.68 h 87.01 c 5.26,0 9.52,4.26 9.52,9.52 0,5.26 -4.26,9.52 -9.52,9.52 h -87.14 l -0.13,19.67 87.27,0.01 c 5.26,-0.01 9.53,4.26 9.52,9.52 0,5.25 -4.26,9.52 -9.52,9.52 l -87.4,-0.01 -0.14,19.68 h 87.54 c 5.26,0 9.52,4.26 9.52,9.52 0,5.26 -4.26,9.52 -9.52,9.52 l -87.67,0.01 -0.13,19.67 h 87.8 c 5.26,0 9.53,4.26 9.52,9.52 0,5.26 -4.26,9.52 -9.52,9.52 h -87.93 l -0.14,19.68 h 88.07 c 5.26,0 9.53,4.26 9.52,9.52 0,5.26 -4.26,9.52 -9.52,9.52 h -88.2 l -0.13,19.67 h 88.33 c 5.26,0 9.53,4.27 9.52,9.53 0,5.26 -4.26,9.52 -9.52,9.52"
       style="fill:#393536;fill-opacity:1;fill-rule:nonzero;stroke:none"
       id="path89" /><path
       d="m 565.965,5167.94 c -9.145,-24.39 -37.426,-36.34 -63.168,-26.68 -25.742,9.66 -39.199,37.26 -30.047,61.64 9.141,24.39 37.434,36.33 63.164,26.68 25.754,-9.66 39.199,-37.26 30.051,-61.64 z m 260.152,61.64 c 25.742,9.65 54.024,-2.29 63.168,-26.68 9.153,-24.38 -4.297,-51.98 -30.039,-61.64 -25.742,-9.66 -54.035,2.29 -63.176,26.68 -9.14,24.38 4.305,51.98 30.047,61.64 z m 95.844,-421.47 c -7.859,35.8 -66.781,94.77 -66.781,94.77 -90.114,86.34 -106.887,98.43 -136.7,132.16 16.325,27.37 39.622,65.88 55.215,89.25 0,0 6.102,7.86 13.961,-0.88 0,0 62.016,-62.88 120.532,13.11 0,0 47.16,75.1 -24.461,122.26 0,0 -79.469,41.04 -118.774,-52.4 0,0 -29.801,-59.39 -45.515,-83.84 0,0 -12.165,-24.24 -38.422,-46.18 -26.246,21.94 -38.418,46.18 -38.418,46.18 -15.719,24.45 -45.52,83.84 -45.52,83.84 -39.293,93.44 -118.773,52.4 -118.773,52.4 -71.61,-47.16 -24.45,-122.26 -24.45,-122.26 58.516,-75.99 120.52,-13.11 120.52,-13.11 7.859,8.74 13.98,0.88 13.98,0.88 15.575,-23.37 38.875,-61.88 55.208,-89.25 -29.821,-33.73 -49.782,-46.89 -140.532,-135.94 0,0 -55.101,-55.19 -62.949,-90.99 0,0 -8.742,-41.69 16.59,-75.86 l 224.344,237.29 224.355,-237.29 c 25.324,34.17 16.59,75.86 16.59,75.86"
       style="fill:#393536;fill-opacity:1;fill-rule:nonzero;stroke:none"
       id="path91" /><path
       d="m 7805.81,4730.6 2.16,-0.56 c 0.13,-0.04 36.45,-6.29 91.03,70.62 0.12,0.21 42.06,67.26 45.87,115.35 l -0.03,78.31 c 0.08,1.68 6.01,109.27 -32.48,151.47 v 0 c -35.12,38.51 -90.29,46.49 -95.91,47.21 l -24.51,0.33 c -6.47,-0.82 -64.61,-9.21 -99.59,-47.54 -38.47,-42.2 -32.54,-149.79 -32.48,-150.87 l 0.02,-79.7 c 3.78,-47.37 45.85,-114.33 46.27,-115 51.32,-76.33 97.02,-70.13 97.44,-70.04 z m 4.75,-20.73 c -2.28,0 -4.09,0.17 -5.42,0.38 -11.13,-1.04 -61.96,-0.94 -115.73,79.04 -1.99,3.14 -45.29,72.1 -49.49,125.14 l -0.03,79.89 c -0.27,4.16 -6.48,116.51 37.69,164.94 42.1,46.15 109.99,53.73 112.86,54.03 l 0.65,0.07 13.43,-0.36 h 13.06 l 0.52,-0.05 c 2.71,-0.29 66.95,-7.54 109.04,-53.69 44.17,-48.43 37.97,-160.78 37.68,-165.54 l 0.02,-78.5 c -4.23,-53.82 -47.39,-122.78 -49.23,-125.69 -50.31,-70.91 -89.01,-79.66 -105.05,-79.66"
       style="fill:#393536;fill-opacity:1;fill-rule:nonzero;stroke:none"
       id="path93" /><path
       d="m 7951.3,4903.11 c 0,0 9.97,8.15 14.61,23.58 4.98,16.47 7.59,46.34 7.69,57.1 0.09,9.43 -15.91,10.95 -21.03,-2.14 0,0 3.82,-57.74 -1.27,-78.54"
       style="fill:#393536;fill-opacity:1;fill-rule:nonzero;stroke:none"
       id="path95" /><path
       d="m 7652.68,4904.95 c 0,0 -9.46,7.73 -13.88,22.39 -4.72,15.65 -7.2,44.03 -7.3,54.25 -0.08,8.96 15.11,10.41 19.97,-2.04 0,0 -3.62,-54.85 1.21,-74.6"
       style="fill:#393536;fill-opacity:1;fill-rule:nonzero;stroke:none"
       id="path97" /><path
       d="m 7751.67,4983.1 c 0,0 -40.59,15.38 -62.23,14.29 0,0 -13.53,-1.1 -24.35,-7.7 0,0 4.07,0 18.94,-1.1 14.88,-1.09 23,-5.49 31.11,-4.39 8.12,1.1 21.64,-3.29 36.53,-1.1"
       style="fill:#393536;fill-opacity:1;fill-rule:nonzero;stroke:none"
       id="path99" /><path
       d="m 7907.21,5087.7 c 0,0 101.45,-167.72 -36.52,-344.92 0,0 35.17,-13.52 101.45,60.87 0,0 52.75,54.1 62.21,201.54 0,0 2.71,20.28 -2.7,40.58 -5.41,20.28 -78.45,259.7 -198.83,239.41 0,0 -77.1,17.58 -125.8,-13.52 -48.69,-31.12 -109.56,-77.1 -142.02,-286.76 0,0 -4.07,-147.43 93.33,-209.66 0,0 50.04,-36.51 68.98,-43.28 l 9.47,-1.35 -12.17,16.23 -2.71,10.82 c 0,0 -21.64,20.29 -18.93,31.11 0,0 -44.64,75.75 -44.64,100.09 0,24.35 -1.35,85.22 2.7,90.63 4.06,5.41 41.94,-4.06 50.05,5.41 8.11,9.47 20.28,27.05 36.52,52.75 0,0 -12.17,-43.28 -25.7,-54.1 0,0 62.22,-10.83 82.51,0 20.28,10.82 55.46,27.05 102.8,104.15"
       style="fill:#393536;fill-opacity:1;fill-rule:nonzero;stroke:none"
       id="path101" /><path
       d="m 7835.52,4983.1 c 0,0 40.58,15.38 62.22,14.29 0,0 13.53,-1.1 24.35,-7.7 0,0 -4.06,0 -18.94,-1.1 -14.88,-1.09 -23,-5.49 -31.11,-4.39 -8.12,1.1 -21.64,-3.29 -36.52,-1.1"
       style="fill:#393536;fill-opacity:1;fill-rule:nonzero;stroke:none"
       id="path103" /><path
       d="m 997.137,3625.53 c 0.086,9.57 -14.192,12.06 -21.621,2.22 v 9.92 c 0,0 7.769,129.47 -40.438,182.33 -46.109,50.56 -118.383,58.18 -118.383,58.18 h -14.726 l -14.727,0.39 c 0,0 -76.637,-8.01 -122.75,-58.57 -48.207,-52.86 -40.437,-182.33 -40.437,-182.33 v -13.54 c -6.848,10.44 -21.278,8.25 -21.192,-1.14 0.106,-11.76 2.977,-44.47 8.414,-62.51 3.723,-12.39 10.575,-20.47 13.977,-23.91 8.906,-57.61 53.926,-128.77 53.926,-128.77 65.207,-97.01 124.16,-85.87 124.16,-85.87 0,0 47.48,-12.38 117.226,85.87 0,0 44.118,69.96 53.539,127.3 3.723,3.89 10.422,12.2 14.168,24.62 5.739,18.99 8.735,53.42 8.864,65.81"
       style="fill:#393536;fill-opacity:1;fill-rule:nonzero;stroke:none"
       id="path105" /><path
       d="m 2357.46,5019.63 c 10.24,10.24 18.96,21.25 26.09,32.61 v 134.31 c -8.59,8.1 -18.89,13.75 -30.32,17.06 v -188.05 c 1.43,1.33 2.83,2.68 4.23,4.07"
       style="fill:#393536;fill-opacity:1;fill-rule:nonzero;stroke:none"
       id="path107" /><path
       d="m 2252.15,5183.51 v -213.58 c 20.55,0.44 42.73,6.76 64.02,18.49 v 218.18 c -20.91,-2.08 -43.08,-9.89 -64.02,-23.09"
       style="fill:#393536;fill-opacity:1;fill-rule:nonzero;stroke:none"
       id="path109" /><path
       d="m 2154.04,4954.05 c -54.7,54.7 -38.83,159.27 35.44,233.54 74.29,74.29 178.85,90.16 233.56,35.45 54.7,-54.71 38.84,-159.27 -35.45,-233.55 -74.27,-74.28 -178.84,-90.15 -233.55,-35.44 z m 333.98,333.97 c -81.14,81.14 -236.22,57.6 -346.4,-52.56 -110.17,-110.17 -133.7,-265.26 -52.56,-346.4 81.14,-81.13 236.22,-57.6 346.4,52.57 110.17,110.17 133.7,265.26 52.56,346.39"
       style="fill:#393536;fill-opacity:1;fill-rule:nonzero;stroke:none"
       id="path111" /><path
       d="m 2024.36,4713.84 c -64.02,-64.01 -108.3,-58.82 -138.82,-28.3 -30.52,30.52 -35.71,74.81 28.31,138.83 64.01,64.02 140.64,91.17 171.17,60.65 30.52,-30.52 3.36,-107.16 -60.66,-171.18"
       style="fill:#393536;fill-opacity:1;fill-rule:nonzero;stroke:none"
       id="path113" /><path
       d="m 2077.54,4783.94 c 0,0 24.25,59.31 87.95,62.71 l -59.42,59.42 -75.33,-75.33 46.8,-46.8"
       style="fill:#393536;fill-opacity:1;fill-rule:nonzero;stroke:none"
       id="path115" /><path
       d="m 1983.95,4877.55 c 0,0 59.3,24.23 62.7,87.94 l 59.42,-59.42 -75.33,-75.33 -46.79,46.81"
       style="fill:#393536;fill-opacity:1;fill-rule:nonzero;stroke:none"
       id="path117" /><path
       d="m 6297.8,3366.92 v -49.9 c 0,-14.77 11.97,-26.76 26.76,-26.76 h 150.89 c 14.77,0 26.77,11.99 26.77,26.76 v 49.9 H 6297.8"
       style="fill:#393536;fill-opacity:1;fill-rule:nonzero;stroke:none"
       id="path119" /><path
       d="m 6400.01,3909.74 h -183.99 v -63.03 h 20.45 l 34.07,-359.43 59.62,-59.63 v -34.07 h 69.85 69.83 v 34.07 l 59.62,59.63 34.08,359.43 h 20.43 v 63.03 h -183.96"
       style="fill:#393536;fill-opacity:1;fill-rule:nonzero;stroke:none"
       id="path121" /><path
       d="m 3951.41,6392.88 c -3.34,45.61 -47.09,43.36 -65.28,41.97 -18.19,-1.4 -9.79,-16.77 -9.79,-16.77 18.55,7.87 62.18,1.17 47.57,-44.79 -12.05,-37.87 -65.77,-7 -65.77,-7 -29.02,15.11 -151.1,104.94 -187.48,117.52 -36.38,12.6 -65.11,-33.57 -65.11,-33.57 -2.18,-2.4 -3.97,-4.61 -5.55,-6.72 -1.58,2.11 -3.37,4.32 -5.55,6.72 0,0 -28.73,46.17 -65.11,33.57 -36.38,-12.58 -158.46,-102.41 -187.49,-117.52 0,0 -53.71,-30.87 -65.76,7 -14.62,45.96 29.02,52.66 47.57,44.79 0,0 8.4,15.37 -9.79,16.77 -18.19,1.39 -61.94,3.64 -65.28,-41.97 -4.3,-58.87 55.8,-72.54 94.67,-75.47 44.77,-3.4 102.13,-16.89 201.47,50.28 0,0 38.36,18.7 55.27,39.97 16.91,-21.27 55.27,-39.97 55.27,-39.97 99.34,-67.17 156.7,-53.68 201.47,-50.28 38.86,2.93 98.97,16.6 94.67,75.47"
       style="fill:#393536;fill-opacity:1;fill-rule:nonzero;stroke:none"
       id="path123" /><path
       d="m 6400,8106.68 c -96.48,0 -174.95,-78.48 -174.95,-174.95 0,-96.47 78.47,-174.95 174.95,-174.95 96.47,0 174.95,78.48 174.95,174.95 0,96.47 -78.48,174.95 -174.95,174.95 z m 0,-407.74 c -128.36,0 -232.79,104.42 -232.79,232.79 0,128.36 104.43,232.8 232.79,232.8 128.36,0 232.79,-104.44 232.79,-232.8 0,-128.37 -104.43,-232.79 -232.79,-232.79"
       style="fill:#393536;fill-opacity:1;fill-rule:nonzero;stroke:none"
       id="path125" /><path
       d="M 6486.03,8035.75 6295.99,7845.7 c 12.75,-15.41 28.88,-27.91 47.23,-36.44 l 179.25,179.24 c -8.53,18.36 -21.03,34.49 -36.44,47.25"
       style="fill:#393536;fill-opacity:1;fill-rule:nonzero;stroke:none"
       id="path127" /><path
       d="m 6534.99,7931.73 c 0,9.15 -0.92,18.08 -2.66,26.72 L 6373.28,7799.4 c 8.63,-1.73 17.57,-2.66 26.72,-2.66 31.03,0 59.6,10.5 82.41,28.12 l 24.47,24.47 c 17.6,22.8 28.11,51.36 28.11,82.4"
       style="fill:#393536;fill-opacity:1;fill-rule:nonzero;stroke:none"
       id="path129" /><path
       d="m 6400,8066.71 c -2.27,0 -4.52,-0.05 -6.77,-0.17 L 6265.19,7938.5 c -0.12,-2.25 -0.18,-4.5 -0.18,-6.77 0,-22.36 5.47,-43.43 15.1,-62 l 181.88,181.9 c -18.56,9.62 -39.64,15.08 -61.99,15.08"
       style="fill:#393536;fill-opacity:1;fill-rule:nonzero;stroke:none"
       id="path131" /><path
       d="m 6689.18,7925.94 h -40.49 c 0,-137.13 -111.56,-248.69 -248.69,-248.69 -137.13,0 -248.7,111.56 -248.7,248.69 h -40.48 c 0,-152.64 118.89,-278.03 268.94,-288.46 v -89.59 c -89.89,-3.15 -159.77,-27.03 -159.77,-56.02 0,-31.15 80.6,-56.4 180.01,-56.4 99.41,0 180.01,25.25 180.01,56.4 0,28.99 -69.88,52.87 -159.77,56.02 v 89.59 c 150.05,10.43 268.94,135.82 268.94,288.46"
       style="fill:#393536;fill-opacity:1;fill-rule:nonzero;stroke:none"
       id="path133" /><path
       d="m 657.371,6573.38 c 42.563,0 77.063,-34.5 77.063,-77.06 0,-42.56 -34.5,-77.06 -77.063,-77.06 -42.558,0 -77.058,34.5 -77.058,77.06 0,42.56 34.5,77.06 77.058,77.06 z m 42.055,68.74 -0.024,-0.04 c -13.347,3.85 -27.437,5.95 -42.031,5.95 -83.785,0 -151.707,-67.92 -151.707,-151.71 0,-45.55 20.098,-86.38 51.887,-114.19 -0.981,-23.78 -5.586,-55.69 -20.578,-85.68 -28.899,-57.79 1.457,-130.04 18.308,-144.48 H 674.23 v 120.4 l 60.204,38.53 6.406,51.26 203.098,57.1 v 77.06 77.06 l -244.512,68.74"
       style="fill:#393536;fill-opacity:1;fill-rule:nonzero;stroke:none"
       id="path135" /><path
       d="m 1002.16,6531.77 c -20.043,0 -30.265,8.05 -31.808,9.38 l 15.886,18.54 -0.332,0.26 c 0.539,-0.39 13.293,-9.42 43.484,1.9 46.18,17.32 63.16,-5.15 64.95,-7.77 l -20.18,-13.75 c 0,0 0.11,-0.2 0.38,-0.51 -0.09,0.1 -8.79,9.59 -36.58,-0.83 -14.28,-5.36 -26.17,-7.22 -35.8,-7.22"
       style="fill:#393536;fill-opacity:1;fill-rule:nonzero;stroke:none"
       id="path137" /><path
       d="m 1002.16,6478.27 c -20.043,0 -30.265,8.05 -31.808,9.38 l 15.886,18.54 -0.332,0.26 c 0.539,-0.39 13.293,-9.42 43.484,1.9 46.18,17.31 63.16,-5.16 64.95,-7.77 l -20.18,-13.75 c 0,0 0.11,-0.2 0.37,-0.51 -0.08,0.1 -8.77,9.59 -36.57,-0.84 -14.28,-5.35 -26.17,-7.21 -35.8,-7.21"
       style="fill:#393536;fill-opacity:1;fill-rule:nonzero;stroke:none"
       id="path139" /><path
       d="m 1002.16,6424.77 c -20.043,0 -30.265,8.05 -31.808,9.37 l 15.886,18.54 -0.332,0.26 c 0.539,-0.39 13.293,-9.42 43.484,1.9 46.18,17.32 63.16,-5.14 64.95,-7.76 l -20.18,-13.75 c 0,0 0.11,-0.21 0.38,-0.52 -0.09,0.1 -8.79,9.6 -36.58,-0.83 -14.28,-5.35 -26.17,-7.21 -35.8,-7.21"
       style="fill:#393536;fill-opacity:1;fill-rule:nonzero;stroke:none"
       id="path141" /><path
       d="m 5000,7790.47 c 0,0 -25.47,-92.05 -162.19,-66.95 -136.7,25.11 -185.54,-18.14 -185.54,-18.14 0,0 4.19,132.51 106.03,168.79 101.84,36.27 172.98,18.13 198.09,-6.97 25.12,-25.12 42.57,-13.96 43.61,-76.73"
       style="fill:#393536;fill-opacity:1;fill-rule:nonzero;stroke:none"
       id="path143" /><path
       d="m 5000,7790.47 c 0,0 25.47,-92.05 162.18,-66.95 136.72,25.11 185.55,-18.14 185.55,-18.14 0,0 -4.19,132.51 -106.03,168.79 -101.83,36.27 -172.97,18.13 -198.09,-6.97 -25.12,-25.12 -42.57,-13.96 -43.61,-76.73"
       style="fill:#393536;fill-opacity:1;fill-rule:nonzero;stroke:none"
       id="path145" /><path
       d="m 5251.96,2440.06 48.91,13.34 v -223.8 l -48.91,16.3 v 194.16"
       style="fill:#393536;fill-opacity:1;fill-rule:nonzero;stroke:none"
       id="path147" /><path
       d="m 4725.81,2465.26 h -26.68 v -211.95 h 26.68 v 211.95"
       style="fill:#393536;fill-opacity:1;fill-rule:nonzero;stroke:none"
       id="path149" /><path
       d="m 4834,2341.5 c 0,56.48 45.79,102.27 102.27,102.27 56.48,0 102.26,-45.79 102.26,-102.27 0,-56.48 -45.78,-102.27 -102.26,-102.27 -56.48,0 -102.27,45.79 -102.27,102.27 z m -90.41,119.31 v -211.94 c 0,0 65.21,-40.02 80.04,-180.82 14.82,-140.81 42.98,-200.09 42.98,-200.09 h 94.85 c 0,0 -22.23,217.87 -28.16,310.06 0,0 125.98,-18.08 300.88,66.4 v 192.68 c 0,0 -217.88,91.89 -326.07,94.85 -108.2,2.97 -164.52,-71.14 -164.52,-71.14"
       style="fill:#393536;fill-opacity:1;fill-rule:nonzero;stroke:none"
       id="path151" /><path
       d="m 2283.33,7546.57 h -166.66 v 166.3 h 166.66 z m 19.37,319.72 c -52.31,-25.18 -102.7,-17.43 -102.7,-17.43 0,0 -50.39,-7.75 -102.7,17.43 -52.32,25.19 -85.26,-89.14 -83.33,-201.53 1.94,-112.38 29.07,-186.01 92.97,-203.46 0,0 48.49,-10.85 93.06,-10.85 44.57,0 93.06,10.85 93.06,10.85 63.9,17.45 91.03,91.08 92.96,203.46 1.94,112.39 -31.01,226.72 -83.32,201.53"
       style="fill:#393536;fill-opacity:1;fill-rule:nonzero;stroke:none"
       id="path153" /><path
       d="m 2277.51,7947.33 c 0,-42.81 -34.7,-77.51 -77.51,-77.51 v 0 c -42.81,0 -77.51,34.7 -77.51,77.51 v 124.72 c 0,42.81 34.7,77.5 77.51,77.5 v 0 c 42.81,0 77.51,-34.69 77.51,-77.5 v -124.72"
       style="fill:#393536;fill-opacity:1;fill-rule:nonzero;stroke:none"
       id="path155" /><path
       d="m 3851.12,7758.66 -216.92,155.56 -50.93,36.52 -101.68,72.92 c -0.63,-11.89 -1.03,-23.79 -1.21,-35.7 l 70.87,-50.82 -11.1,-15.46 c -5.8,-8.09 -3.93,-19.46 4.16,-25.27 l 267.85,-192.07 c 8.09,-5.8 19.46,-3.93 25.26,4.16 l 17.86,24.9 c 5.8,8.09 3.93,19.46 -4.16,25.26"
       style="fill:#393536;fill-opacity:1;fill-rule:nonzero;stroke:none"
       id="path157" /><path
       d="m 3364.84,8107.38 c -6.64,4.76 -15.96,3.22 -20.73,-3.42 -4.76,-6.64 -3.22,-15.96 3.42,-20.73 l 37.33,-26.77 c 4,8.93 9.07,17.75 14.84,25.92 l -34.86,25"
       style="fill:#393536;fill-opacity:1;fill-rule:nonzero;stroke:none"
       id="path159" /><path
       d="m 3432.97,8018.23 c -9.92,0 -17.97,8.05 -17.97,17.97 0,9.93 8.05,17.98 17.97,17.98 9.93,0 17.97,-8.05 17.97,-17.98 0,-9.92 -8.04,-17.97 -17.97,-17.97 z m 140.88,-486.4 c -73.59,147.55 -109.15,307.25 -105.42,464.71 0.28,11.84 0.76,23.67 1.49,35.49 0.78,12.65 1.75,25.28 3.04,37.88 2.41,25.07 -4.94,40.24 -18.48,40.23 -4.25,0 -9.12,-1.49 -14.48,-4.66 v 0 c -10.49,-6.2 -21.38,-17.19 -30.51,-30.12 -5.77,-8.15 -10.82,-17.06 -14.63,-26.07 -3.02,-7.13 -5.29,-14.31 -6.47,-21.18 -27.44,-163.96 -8.59,-327.97 52.48,-473.02 10.57,-25.78 52.91,-53.62 92.15,-62.8 v 0 c 7.07,-1.65 13.43,-2.44 19.02,-2.44 25.42,0 34.73,16.34 21.81,41.98"
       style="fill:#393536;fill-opacity:1;fill-rule:nonzero;stroke:none"
       id="path161" /><path
       d="m 6510.62,612.141 c -60.51,-17.5 -39.25,16.16 -51.95,38.097 -12.7,21.934 -37.46,33.934 -66.33,33.934 -28.86,0 -54.88,-6.223 -66.43,-27 -3.97,-7.141 -3.46,-50.793 -20.78,-53.113 -17.32,-2.309 -55.41,25.402 -57.72,43.871 -2.31,18.48 19.62,72.73 19.62,72.73 20.78,19.621 113.14,11.539 113.14,11.539 15.01,-6.929 125.83,1.16 145.45,-4.617 19.64,-5.762 28.87,-33.473 28.87,-50.793 0,-17.32 -11.41,-55.258 -43.87,-64.648 z m 80.81,103.898 c -4.62,20.781 -32.06,62.941 -40.14,72.18 -8.09,9.23 -41.09,29.89 -46.86,33.363 -5.78,3.457 -29.6,9.898 -45.76,-0.48 -16.16,-10.403 -34.64,-19.633 -39.25,-19.633 -4.62,0 -41.56,-4.617 -48.49,5.773 0,0 -23.24,14.278 -37.09,16.59 -13.86,2.309 -39.9,-1.25 -47.97,-11.641 -8.08,-10.39 -26.11,-29.199 -38.63,-36.121 -12.53,-6.922 -42.54,-50.789 -42.54,-64.648 0,-13.852 -4.62,-133.91 0,-153.531 4.62,-19.629 106.31,-102.739 187.64,-99.282 81.33,3.461 172.54,73.883 196.78,106.2 0,0 9.24,46.183 11.54,69.273 2.31,23.09 -4.62,61.18 -9.23,81.957"
       style="fill:#393536;fill-opacity:1;fill-rule:nonzero;stroke:none"
       id="path163" /><path
       d="m 6352.12,1109.7 c 0,0 -18.48,20.77 -66.96,25.39 -48.49,4.62 -121.22,2.31 -136.22,5.77 -15.01,3.47 -27.71,-8.08 -33.48,-15.58 -5.77,-7.5 5.77,-8.66 19.63,-8.66 13.85,0 95.81,-6.92 115.44,-6.92 19.62,0 80.8,-10.39 101.59,0"
       style="fill:#393536;fill-opacity:1;fill-rule:nonzero;stroke:none"
       id="path165" /><path
       d="m 6443.32,1111.56 c -4.06,3.39 33.47,17.68 45.02,18.21 11.54,0.52 147.77,9.75 160.46,8.6 12.7,-1.16 30.02,-14.02 35.79,-13.36 5.77,0.66 -6.92,-14.87 -12.69,-13.45 -5.78,1.41 -65.81,0.71 -77.36,-0.1 -11.54,-0.8 -84.27,-6.57 -93.5,-5.41 -9.24,1.15 -45.02,-5.15 -57.72,5.51"
       style="fill:#393536;fill-opacity:1;fill-rule:nonzero;stroke:none"
       id="path167" /><path
       d="m 993.055,8146.31 h -386.11 c -11,0 -20,-9 -20,-20 v -98.27 c 0,-11 9,-20 20,-20 h 22.328 v 81.83 h 341.454 v -81.83 h 22.328 c 10.995,0 19.995,9 19.995,20 v 98.27 c 0,11 -9,20 -19.995,20"
       style="fill:#393536;fill-opacity:1;fill-rule:nonzero;stroke:none"
       id="path169" /><path
       d="M 961.563,8057.23 H 637.559 v 23.86 h 324.004 v -23.86"
       style="fill:#393536;fill-opacity:1;fill-rule:nonzero;stroke:none"
       id="path171" /><path
       d="M 961.563,8025.68 H 637.559 v 23.86 h 324.004 v -23.86"
       style="fill:#393536;fill-opacity:1;fill-rule:nonzero;stroke:none"
       id="path173" /><path
       d="M 961.563,7994.13 H 637.559 v 23.85 h 324.004 v -23.85"
       style="fill:#393536;fill-opacity:1;fill-rule:nonzero;stroke:none"
       id="path175" /><path
       d="m 866.617,7969.35 c -32.398,-24.78 -32.398,-91.79 -32.398,-91.79 v -407.52 c 0,-9.03 -7.321,-16.35 -16.348,-16.35 H 800 799.586 781.715 c -9.027,0 -16.348,7.32 -16.348,16.35 v 407.52 c 0,0 0,67.01 -32.398,91.79 h 133.648"
       style="fill:#393536;fill-opacity:1;fill-rule:nonzero;stroke:none"
       id="path177" /><path
       d="m 3802.24,675.961 h -404.48 v 109.18 h 404.48 z m -34.35,195.078 h -335.78 c -73.34,0 -132.79,-59.449 -132.79,-132.789 v -15.41 c 0,-73.34 59.45,-132.789 132.79,-132.789 h 335.78 c 73.34,0 132.79,59.449 132.79,132.789 v 15.41 c 0,73.34 -59.45,132.789 -132.79,132.789"
       style="fill:#393536;fill-opacity:1;fill-rule:nonzero;stroke:none"
       id="path179" /><path
       d="m 3823.2,919.148 c 0.61,3.954 1.02,7.961 1.02,12.071 0,43.48 -35.25,78.731 -78.72,78.731 h -291 c -43.47,0 -78.72,-35.251 -78.72,-78.731 0,-4.11 0.41,-8.117 1.02,-12.071 h 446.4"
       style="fill:#393536;fill-opacity:1;fill-rule:nonzero;stroke:none"
       id="path181" /><path
       d="m 7895.79,7621.18 c -37.9,0 -68.74,-37.13 -68.74,-82.76 0,-45.64 30.84,-82.76 68.74,-82.76 37.9,0 68.74,37.12 68.74,82.76 0,45.63 -30.84,82.76 -68.74,82.76 z m 0,-198.5 c -56.09,0 -101.71,51.92 -101.71,115.74 0,63.81 45.62,115.73 101.71,115.73 56.08,0 101.71,-51.92 101.71,-115.73 0,-63.82 -45.63,-115.74 -101.71,-115.74"
       style="fill:#393536;fill-opacity:1;fill-rule:nonzero;stroke:none"
       id="path183" /><path
       d="m 7664.77,7621.18 c -37.9,0 -68.74,-37.13 -68.74,-82.76 0,-45.64 30.84,-82.76 68.74,-82.76 37.9,0 68.74,37.12 68.74,82.76 0,45.63 -30.84,82.76 -68.74,82.76 z m 0,-198.5 c -56.08,0 -101.71,51.92 -101.71,115.74 0,63.81 45.63,115.73 101.71,115.73 56.09,0 101.71,-51.92 101.71,-115.73 0,-63.82 -45.62,-115.74 -101.71,-115.74"
       style="fill:#393536;fill-opacity:1;fill-rule:nonzero;stroke:none"
       id="path185" /><path
       d="m 7717.21,7645.11 c 8.01,48.72 29.76,95.8 52.43,134.22 -17.85,27.56 -34.7,48.79 -44.27,60.23 -1.51,-10.76 -2.95,-20.21 -4.3,-28.03 -20.04,-115.57 -121.74,-193.71 -121.74,-193.71 l 61.15,18.73 54.91,-16.87 c -5.32,6.09 -10.5,-49.48 1.82,25.43"
       style="fill:#393536;fill-opacity:1;fill-rule:nonzero;stroke:none"
       id="path187" /><path
       d="m 7851.15,7620.05 -6.06,-1.86 c 0,0 3.05,-1.57 6.06,1.86"
       style="fill:#393536;fill-opacity:1;fill-rule:nonzero;stroke:none"
       id="path189" /><path
       d="m 7782.44,7872.06 c -10.41,0 -18.85,8.44 -18.85,18.84 0,10.41 8.44,18.84 18.85,18.84 10.4,0 18.84,-8.43 18.84,-18.84 0,-10.4 -8.44,-18.84 -18.84,-18.84 z m 184.77,-253.87 c 0,0 -101.7,78.15 -121.74,193.71 -20.03,115.57 -58.55,424.4 -58.55,424.4 l -55.47,-365.84 c 0,0 98.62,-107.87 117.88,-224.98 12.32,-74.91 7.14,-19.34 1.82,-25.43 l 54.91,16.87 61.15,-18.73"
       style="fill:#393536;fill-opacity:1;fill-rule:nonzero;stroke:none"
       id="path191" /><path
       d="m 7995.13,7538.41 c 0,0 -18.02,-48.63 -9.01,-94.95 9.01,-46.31 50.82,-79.77 50.82,-79.77 h -53.34 l -74.03,70.77 40.3,27.26 45.26,76.69"
       style="fill:#393536;fill-opacity:1;fill-rule:nonzero;stroke:none"
       id="path193" /><path
       d="m 7755.83,7572.12 h 22.51 V 7497.5 H 7750 l 5.83,74.62"
       style="fill:#393536;fill-opacity:1;fill-rule:nonzero;stroke:none"
       id="path195" /><path
       d="m 6622.24,6723.83 c 0,0 -156.21,-154.89 -281.51,-279.8 l -355.29,-355.29 c -5.18,-5.18 -5.18,-13.57 0,-18.75 v 0 c 5.03,-5.03 13.08,-5.24 18.31,-0.42 46.25,42.64 255.11,232.49 396.02,315.41 25.03,19.31 49,28.03 60.94,31.44 l 92.99,-92.99 c 5.45,-5.45 14.29,-5.45 19.74,0 5.46,5.45 5.46,14.3 0,19.75 l -90.09,90.1 20.26,20.54 90.24,-90.23 c 5.45,-5.46 14.29,-5.46 19.74,0 5.46,5.45 5.46,14.29 0,19.74 l -90.37,90.37 20.27,20.54 90.51,-90.5 c 5.45,-5.46 14.3,-5.46 19.75,0 5.45,5.45 5.45,14.29 0,19.74 l -90.65,90.64 20.27,20.55 90.78,-90.78 c 5.46,-5.46 14.29,-5.46 19.75,0 5.45,5.45 5.45,14.29 0,19.74 l -90.92,90.92 20.27,20.55 91.05,-91.06 c 5.46,-5.46 14.3,-5.46 19.75,0 5.46,5.45 5.46,14.29 0,19.75 l -91.19,91.19 20.27,20.54 91.32,-91.33 c 5.46,-5.46 14.3,-5.46 19.75,0 5.46,5.45 5.46,14.29 0,19.75 l -91.46,91.46 20.26,20.54 91.61,-91.6 c 5.45,-5.46 14.29,-5.46 19.74,0 5.46,5.46 5.46,14.29 0,19.75 l -91.73,91.73 0.86,0.88 -41.89,47.13 c -27.93,22.69 -59.35,0 -59.35,0"
       style="fill:#393536;fill-opacity:1;fill-rule:nonzero;stroke:none"
       id="path197" /><path
       d="m 607.91,900.07 c 0,0 103.656,-48.558 158.645,-132.078 v 0 l 18.019,-386.523 c 0.387,-8.207 7.156,-14.68 15.379,-14.68 v 0 h 0.094 v 0 c 8.223,0 14.992,6.473 15.379,14.68 l 18.019,386.523 v 0 C 888.434,851.512 992.09,900.07 992.09,900.07 v 89.231 243.909 H 966.188 V 989.301 H 940.285 V 1233.21 H 914.387 V 989.301 H 888.484 V 1233.21 H 862.582 V 989.301 H 836.68 V 1233.21 H 810.777 V 989.301 h -3.5 -14.437 -3.5 V 1233.21 H 763.438 V 989.301 H 737.535 V 1233.21 H 711.633 V 989.301 H 685.73 V 1233.21 H 659.832 V 989.301 H 633.93 V 1233.21 H 608.027 V 989.301 L 607.91,900.07"
       style="fill:#393536;fill-opacity:1;fill-rule:nonzero;stroke:none"
       id="path199" /><path
       d="m 2396.15,6594.79 h -96.87 v 115.94 h 96.87 v -115.94"
       style="fill:#393536;fill-opacity:1;fill-rule:nonzero;stroke:none"
       id="path201" /><path
       d="m 2422.72,6527.16 h -150.01 v 72.46 h 150.01 v -72.46"
       style="fill:#393536;fill-opacity:1;fill-rule:nonzero;stroke:none"
       id="path203" /><path
       d="m 2058.88,6236.61 c 0,-81.37 -52.99,-147.34 -118.35,-147.34 -65.37,0 -118.35,65.97 -118.35,147.34 0,81.37 52.98,134.26 118.35,134.26 65.36,0 118.35,-52.89 118.35,-134.26"
       style="fill:#393536;fill-opacity:1;fill-rule:nonzero;stroke:none"
       id="path205" /><path
       d="m 1955.12,6345.66 -29.19,5.53 c 0.63,3.33 16.08,82.46 70.71,162.88 50.82,74.84 146.29,164.33 312.44,165.62 l 0.23,-29.71 c -123.04,-0.96 -219.97,-52.3 -288.09,-152.6 -51.2,-75.38 -65.95,-150.97 -66.1,-151.72"
       style="fill:#393536;fill-opacity:1;fill-rule:nonzero;stroke:none"
       id="path207" /><path
       d="m 2463.78,6245.1 c 0,-22.88 -18.72,-41.6 -41.6,-41.6 h -148.93 c -22.88,0 -41.6,18.72 -41.6,41.6 v 105.7 c 0,22.88 18.72,41.6 41.6,41.6 h 148.93 c 22.88,0 41.6,-18.72 41.6,-41.6 z m 90.25,202.88 -45.99,40.81 c -12.95,11.49 -29.67,17.84 -46.98,17.84 h -113.34 -113.34 c -17.32,0 -34.03,-6.35 -46.98,-17.84 l -45.99,-40.81 c -18.89,-16.77 -27.42,-42.34 -22.37,-67.09 l 47.92,-234.98 c 6.73,-32.96 35.72,-56.64 69.36,-56.64 h 111.4 111.4 c 33.64,0 62.63,23.68 69.35,56.64 l 47.92,234.98 c 5.05,24.75 -3.47,50.32 -22.36,67.09"
       style="fill:#393536;fill-opacity:1;fill-rule:nonzero;stroke:none"
       id="path209" /><path
       d="m 5379.12,6236.81 c 0,-31.02 -25.14,-56.17 -56.16,-56.17 -31.02,0 -56.17,25.15 -56.17,56.17 0,31.02 25.15,56.16 56.17,56.16 31.02,0 56.16,-25.14 56.16,-56.16"
       style="fill:#393536;fill-opacity:1;fill-rule:nonzero;stroke:none"
       id="path211" /><path
       d="m 4935.41,6282.09 h -314.53 v -33.7 h 314.53 v 33.7"
       style="fill:#393536;fill-opacity:1;fill-rule:nonzero;stroke:none"
       id="path213" /><path
       d="m 4947.17,6390.22 -276.17,150.54 16.13,29.59 276.17,-150.54 -16.13,-29.59"
       style="fill:#393536;fill-opacity:1;fill-rule:nonzero;stroke:none"
       id="path215" /><path
       d="m 5304.99,6304.61 c -1.39,1.54 -2.99,2.93 -4.91,3.98 l -565.89,308.47 c -9.15,4.99 -20.73,1.58 -25.72,-7.57 l -15.79,-28.97 568.69,-310.01 c 9.13,16.66 24.85,29.13 43.62,34.1"
       style="fill:#393536;fill-opacity:1;fill-rule:nonzero;stroke:none"
       id="path217" /><path
       d="m 5252.75,6236.81 h -631.87 v -33 c 0,-10.42 8.53,-18.96 18.96,-18.96 h 636.01 c -14.16,12.85 -23.1,31.33 -23.1,51.96"
       style="fill:#393536;fill-opacity:1;fill-rule:nonzero;stroke:none"
       id="path219" /><path
       d="m 4131.07,4272.61 1.87,7.2 17.16,66.36 -17.22,198.61 h -405.71 c -37.7,0 -68.54,-28.37 -68.54,-63.03 v -390.32 c 0,-32.39 26.93,-59.26 61.21,-62.65 v 424.87 h 85.05 V 4028.4 h 69.4 v 425.25 h 85.05 V 4028.4 h 69.41 v 425.25 h 85.05 v -300.4 c 16.4,67.47 17.27,111.11 17.27,111.93 v 7.43"
       style="fill:#393536;fill-opacity:1;fill-rule:nonzero;stroke:none"
       id="path221" /><path
       d="m 4872.83,4544.78 h -405.74 l -17.14,-197.77 17.15,-67.43 1.75,-7.09 0.05,-7.1 c 0.01,-0.91 0.87,-44.64 17.3,-112.21 v 300.47 h 85.05 V 4028.4 h 69.41 v 425.25 h 85.05 V 4028.4 h 69.4 v 425.25 h 85.05 v -424.87 c 34.28,3.39 61.21,30.26 61.21,62.65 v 390.32 c 0,34.66 -30.84,63.03 -68.54,63.03"
       style="fill:#393536;fill-opacity:1;fill-rule:nonzero;stroke:none"
       id="path223" /><path
       d="m 4652.97,3540.94 c -17.87,-27.38 -44.1,-44.88 -73.86,-49.28 -4.85,-0.71 -9.78,-1.07 -14.65,-1.07 -58.09,0 -109.35,50.4 -119.23,117.24 -5.36,36.28 1.98,72.02 20.68,100.66 17.88,27.38 44.11,44.88 73.86,49.28 4.85,0.71 9.78,1.08 14.65,1.08 58.1,0 109.36,-50.41 119.24,-117.25 5.36,-36.28 -1.98,-72.02 -20.69,-100.66 z m -321.22,719.7 c -6.82,-10.3 -18.48,-17.11 -31.76,-17.11 -13.26,0 -24.92,6.79 -31.74,17.07 -3.99,6.03 -6.35,13.24 -6.35,21.01 0,7.77 2.36,14.98 6.35,21.01 6.82,10.28 18.48,17.07 31.74,17.07 13.28,0 24.94,-6.81 31.76,-17.11 3.98,-6.02 6.32,-13.21 6.32,-20.97 0,-7.75 -2.34,-14.95 -6.32,-20.97 z m -177,-652.81 c -9.88,-66.84 -61.14,-117.25 -119.24,-117.24 -4.87,0 -9.8,0.36 -14.65,1.07 -62.97,9.31 -105.38,76.57 -94.54,149.94 9.88,66.84 61.14,117.25 119.24,117.25 4.87,0 9.79,-0.37 14.64,-1.08 62.98,-9.31 105.39,-76.58 94.55,-149.94 z m 584.34,43.44 c -13.39,90.65 -81.04,160.85 -161.9,172.1 -52.32,72.08 -88.21,142.42 -112.84,205.03 -27.52,69.93 -40.97,130.13 -47.55,172.36 -6.31,40.44 -6.34,64.41 -6.34,64.41 l -19.59,77.03 9.66,111.45 7.9,91.13 48.93,564.51 -39.31,39.45 -117.13,-452.88 -115.19,452.88 -43.11,-39.45 48.93,-564.51 7.9,-91.13 9.74,-112.41 -19.67,-76.07 c 0,0 -0.03,-23.92 -6.32,-64.27 -6.57,-42.23 -20.02,-102.49 -47.57,-172.5 -24.64,-62.61 -60.52,-132.95 -112.84,-205.03 -80.86,-11.26 -148.51,-81.46 -161.91,-172.1 -16.18,-109.45 51.25,-210.4 150.31,-225.04 8.04,-1.19 16.22,-1.8 24.32,-1.8 v 0 0 h 0.01 c 90.63,0 170.03,74.69 184.67,173.73 11.79,79.74 -20.84,154.94 -77.72,195.57 5,43.22 19.63,129.46 60.63,197.72 25.14,41.86 43.73,81.52 65.15,114.42 9.72,14.91 19.95,28.56 31.74,40.17 11.8,-11.61 22.04,-25.28 31.76,-40.21 21.41,-32.89 40,-72.54 65.13,-114.38 40.94,-68.16 55.59,-154.25 60.61,-197.54 -18.09,-12.86 -34.01,-29.41 -46.97,-49.25 -27.54,-42.19 -38.46,-94.22 -30.73,-146.5 14.64,-99.04 94.03,-173.73 184.67,-173.73 8.1,0 16.29,0.61 24.32,1.8 48.74,7.2 91.21,35.1 119.58,78.55 27.55,42.18 38.46,94.21 30.73,146.49"
       style="fill:#393536;fill-opacity:1;fill-rule:nonzero;stroke:none"
       id="path225" /><path
       d="m 7579.35,6248.37 c 4.64,4.64 17.86,-0.64 32.43,-12.1 l 9.34,9.34 v 35.31 c 0,11.14 9.03,20.17 20.18,20.17 h 35.3 l 10.25,10.25 c -11.46,14.57 -16.75,27.79 -12.1,32.43 4.65,4.65 17.86,-0.64 32.43,-12.1 l 55.3,55.3 c -4.83,13.92 -1.68,29.99 9.44,41.11 11.12,11.12 27.19,14.27 41.11,9.44 l 55.29,55.3 c -11.45,14.57 -16.74,27.78 -12.09,32.43 4.64,4.65 17.86,-0.64 32.43,-12.1 l 10.25,10.25 v 35.3 c 0,11.14 9.03,20.18 20.17,20.18 h 35.31 l 9.34,9.34 c -11.46,14.57 -16.74,27.79 -12.1,32.44 6.01,6 26.33,-4.58 45.39,-23.64 19.06,-19.06 29.64,-39.38 23.63,-45.39 -4.64,-4.64 -17.86,0.64 -32.43,12.1 l -9.34,-9.34 v -35.31 c 0,-11.14 -9.04,-20.17 -20.18,-20.17 h -35.3 l -10.25,-10.25 c 11.46,-14.57 16.75,-27.79 12.1,-32.43 -4.65,-4.65 -17.86,0.64 -32.43,12.1 l -55.3,-55.3 c 4.83,-13.92 1.68,-29.99 -9.44,-41.11 -11.12,-11.12 -27.19,-14.27 -41.11,-9.44 l -55.3,-55.3 c 11.46,-14.57 16.75,-27.78 12.1,-32.43 -4.64,-4.65 -17.86,0.64 -32.43,12.1 l -10.25,-10.25 v -35.3 c 0,-11.14 -9.03,-20.18 -20.17,-20.18 h -35.31 l -9.34,-9.34 c 11.45,-14.57 16.74,-27.79 12.1,-32.44 -6.01,-6 -26.33,4.58 -45.39,23.64 -19.06,19.06 -29.64,39.38 -23.63,45.39 z m -12.25,-81.27 53.8,-53.23 c 0,0 4.14,-7.25 13.46,-8.28 9.32,-1.04 15.54,7.24 15.54,7.24 l 17.6,18.65 c 0,0 12.95,11.9 23.3,1.55 6.27,-6.27 5.14,-14.23 3.28,-19.55 -1.38,-3.92 -0.3,-8.29 2.64,-11.22 4.85,-4.86 11.35,-7.72 18.21,-8.03 7.72,-0.36 15.23,2.56 20.7,8.03 l 181.06,181.05 181.05,181.06 c 5.47,5.47 8.38,12.98 8.03,20.7 -0.31,6.86 -3.17,13.35 -8.03,18.21 -2.93,2.94 -7.3,4.02 -11.22,2.64 -5.32,-1.86 -13.29,-2.99 -19.55,3.28 -10.36,10.35 1.55,23.3 1.55,23.3 l 18.65,17.6 c 0,0 8.28,6.22 7.24,15.54 -1.03,9.32 -8.28,13.46 -8.28,13.46 l -53.23,53.8 -53.8,53.23 c 0,0 -4.14,7.25 -13.46,8.28 -9.32,1.04 -15.54,-7.24 -15.54,-7.24 l -17.6,-18.65 c 0,0 -12.95,-11.9 -23.3,-1.55 -6.27,6.27 -5.14,14.23 -3.28,19.55 1.38,3.92 0.3,8.29 -2.64,11.22 -4.86,4.86 -11.35,7.72 -18.21,8.03 -7.72,0.36 -15.23,-2.56 -20.7,-8.03 l -181.06,-181.05 -181.05,-181.06 c -5.47,-5.47 -8.39,-12.98 -8.03,-20.7 0.31,-6.86 3.17,-13.35 8.03,-18.21 2.93,-2.94 7.3,-4.02 11.22,-2.64 5.32,1.86 13.28,2.99 19.55,-3.28 10.35,-10.35 -1.56,-23.3 -1.56,-23.3 l -18.64,-17.6 c 0,0 -8.28,-6.22 -7.25,-15.54 1.04,-9.32 8.29,-13.46 8.29,-13.46 l 53.23,-53.8"
       style="fill:#393536;fill-opacity:1;fill-rule:nonzero;stroke:none"
       id="path227" /><path
       d="m 6511.85,5193.62 v 0 l 157.27,113.72 44.01,-25.69 -3.54,-23.8 c -1.84,-12.37 -9.93,-22.9 -21.4,-27.87 l -128.52,-55.72 c -18.55,-8.04 -40.09,0.68 -47.82,19.36"
       style="fill:#393536;fill-opacity:1;fill-rule:nonzero;stroke:none"
       id="path229" /><path
       d="m 6595.28,5172.79 72.67,27.46 -11.17,-75.02 c -3.85,-25.83 -18.04,-49 -39.31,-64.17 l -66.63,-47.5 -31.53,23.83 30.95,21.07 c 24.18,16.45 39.56,43.02 41.79,72.18 l 3.23,42.15"
       style="fill:#393536;fill-opacity:1;fill-rule:nonzero;stroke:none"
       id="path231" /><path
       d="m 6547.84,4992.1 -200.66,-183.85 c -13.9,-12.73 -29.44,-23.52 -46.22,-32.1 l -154.61,-79.01 c -20.56,-10.5 -45.74,-1.91 -55.58,18.98 v 0 c -9.02,19.16 -1.92,42.03 16.36,52.71 l 205.63,120.12 c 0.91,0.53 1.78,1.13 2.61,1.77 l 177.37,138.29 55.1,-36.91"
       style="fill:#393536;fill-opacity:1;fill-rule:nonzero;stroke:none"
       id="path233" /><path
       d="m 2279.43,3796.02 c -31.72,0 -57.43,25.71 -57.43,57.43 0,31.71 25.71,57.42 57.43,57.42 31.71,0 57.42,-25.71 57.42,-57.42 0,-31.72 -25.71,-57.43 -57.42,-57.43 z M 2200,3667.65 c -31.72,0 -57.43,25.71 -57.43,57.42 0,31.72 25.71,57.43 57.43,57.43 31.71,0 57.42,-25.71 57.42,-57.43 0,-31.71 -25.71,-57.42 -57.42,-57.42 z m -79.43,128.37 c -31.71,0 -57.42,25.71 -57.42,57.43 0,31.71 25.71,57.42 57.42,57.42 31.72,0 57.43,-25.71 57.43,-57.42 0,-31.72 -25.71,-57.43 -57.43,-57.43 z m 248.04,57.43 c 0,49.25 -39.93,89.18 -89.18,89.18 -34.69,0 -64.68,-19.85 -79.43,-48.77 -14.75,28.92 -44.74,48.77 -79.43,48.77 -49.25,0 -89.18,-39.93 -89.18,-89.18 0,-24.27 9.71,-46.23 25.43,-62.3 16.07,-16.43 38.42,-26.7 63.18,-26.86 -5.82,-11.85 -9.18,-25.13 -9.18,-39.22 0,-49.25 39.93,-89.18 89.18,-89.18 49.25,0 89.18,39.93 89.18,89.18 0,14.09 -3.36,27.37 -9.18,39.22 24.76,0.16 47.11,10.43 63.18,26.86 15.72,16.07 25.43,38.03 25.43,62.3"
       style="fill:#393536;fill-opacity:1;fill-rule:nonzero;stroke:none"
       id="path235" /><path
       d="m 2200,3424.43 c -23.12,0 -41.86,29.95 -41.86,66.89 0,36.94 18.74,66.89 41.86,66.89 23.12,0 41.86,-29.95 41.86,-66.89 0,-36.94 -18.74,-66.89 -41.86,-66.89 z m 168.61,339.83 -11.79,12.47 c -13.62,-13.73 -30.78,-23.95 -50.04,-28.95 1.6,-7.43 2.4,-15.01 2.4,-22.71 0,-60.2 -48.98,-109.18 -109.18,-109.18 -60.2,0 -109.18,48.98 -109.18,109.18 0,7.7 0.8,15.28 2.39,22.71 -19.25,5 -36.41,15.22 -50.03,28.95 l -11.79,-12.47 c 0,0 -19.51,-479.02 168.61,-506.89 188.12,27.87 168.61,506.89 168.61,506.89"
       style="fill:#393536;fill-opacity:1;fill-rule:nonzero;stroke:none"
       id="path237" /><path
       d="m 5338.3,936.32 -91.74,91.74 0.87,0.88 -41.9,47.13 c -27.93,22.69 -59.34,0 -59.34,0 0,0 -413.7,-410.211 -434.65,-433.851 -20.95,-23.649 -87.28,-98.547 -33.16,-122.989 54.11,-24.441 141.38,36.661 183.28,136.161 34.34,81.558 100.32,106.8 123,113.257 l 92.98,-92.976 c 5.46,-5.461 14.3,-5.461 19.75,0 5.45,5.449 5.45,14.289 0,19.75 l -90.1,90.09 20.27,20.547 90.24,-90.239 c 5.45,-5.461 14.29,-5.461 19.74,0 5.46,5.45 5.46,14.289 0,19.75 l -90.37,90.371 20.27,20.539 90.51,-90.511 c 5.45,-5.457 14.29,-5.457 19.74,0 5.46,5.461 5.46,14.293 0,19.75 l -90.64,90.64 20.27,20.539 90.78,-90.777 c 5.45,-5.461 14.29,-5.461 19.74,0 5.46,5.449 5.46,14.301 0,19.75 l -90.91,90.918 20.26,20.539 91.06,-91.058 c 5.45,-5.461 14.3,-5.461 19.75,0 5.45,5.46 5.45,14.3 0,19.75 l -91.2,91.191 20.27,20.539 91.33,-91.32 c 5.45,-5.461 14.3,-5.461 19.75,0 5.46,5.449 5.46,14.289 0,19.742 l -91.46,91.469 20.26,20.539 91.6,-91.598 c 5.46,-5.461 14.3,-5.461 19.75,0 5.46,5.449 5.46,14.289 0,19.738"
       style="fill:#393536;fill-opacity:1;fill-rule:nonzero;stroke:none"
       id="path239" /><path
       d="m 8055.41,3569.72 -363.33,9.62 -82.62,393.64 c -4.44,21.16 -24.65,35.15 -46.01,31.86 l -23.08,-3.55 c -23.15,-3.56 -38.52,-25.87 -33.6,-48.77 l 105.42,-490.34 h 481.96 v 67.76 c 0,21.57 -17.18,39.21 -38.74,39.78"
       style="fill:#393536;fill-opacity:1;fill-rule:nonzero;stroke:none"
       id="path241" /><path
       d="m 7581.65,3736.44 h 384.55 c 18.2,0 34.13,-12.2 38.87,-29.77 l 37.23,-137.98 h -55.91 l -25.44,76.3 c -5.48,16.45 -20.88,27.54 -38.22,27.53 l -319.78,-0.18 -21.3,64.1"
       style="fill:#393536;fill-opacity:1;fill-rule:nonzero;stroke:none"
       id="path243" /><path
       d="m 8049.31,3239.52 h -389.94 c -24.77,0 -44.84,-20.08 -44.84,-44.84 v 0 h 479.62 v 0 c 0,24.76 -20.08,44.84 -44.84,44.84"
       style="fill:#393536;fill-opacity:1;fill-rule:nonzero;stroke:none"
       id="path245" /><path
       d="m 7903.34,3252.65 h -98.01 v 32.82 h 98.01 v -32.82"
       style="fill:#393536;fill-opacity:1;fill-rule:nonzero;stroke:none"
       id="path247" /><path
       d="m 7883.86,3295.31 h -59.05 v 153.76 h 59.05 v -153.76"
       style="fill:#393536;fill-opacity:1;fill-rule:nonzero;stroke:none"
       id="path249" /><path
       d="m 7747.45,3449.07 -24.62,-106.67 h -96.82 v 32.83 l 72.21,-1.65 19.69,75.49 h 29.54"
       style="fill:#393536;fill-opacity:1;fill-rule:nonzero;stroke:none"
       id="path251" /><path
       d="M 930.313,2495.47 H 669.688 c -10.793,0 -19.622,8.83 -19.622,19.62 0,10.79 8.829,19.62 19.622,19.62 h 260.625 c 10.792,0 19.621,-8.83 19.621,-19.62 0,-10.79 -8.829,-19.62 -19.621,-19.62 z m -0.504,129.21 v -19.63 h -8.352 v 19.83 h -4.871 v -19.83 h -8.356 v 19.83 h -4.871 v -19.83 h -8.351 v 19.83 h -4.871 v -19.83 h -8.356 v 19.83 h -4.871 v -19.83 h -8.351 v 19.83 h -4.871 v -19.83 h -8.352 v 19.83 h -4.875 v -19.83 h -8.352 v 19.83 h -4.871 v -19.83 h -8.351 v 19.83 h -4.875 v -19.83 h -8.352 v 19.83 h -4.871 v -19.83 h -8.351 v 19.83 h -4.875 v -19.83 h -8.352 v 19.83 h -4.871 v -19.83 h -8.352 v 19.83 h -4.875 v -19.83 h -8.351 v 19.83 h -4.871 v -19.83 h -8.352 v 19.83 h -4.871 v -19.83 h -8.355 v 19.83 h -4.872 v -19.83 h -8.351 v 19.83 h -4.871 v -19.83 h -8.356 v 19.83 h -4.871 v -19.83 h -8.351 v 19.83 h -4.871 v -19.83 h -8.356 v 19.83 h -4.871 v -19.83 h -8.352 v 19.63 c -32.195,-2.12 -57.898,-29.04 -57.898,-61.75 v -103.87 c 0,-22.96 12.68,-43.07 31.359,-53.77 2.047,3.75 4.164,7.34 6.414,10.62 23.563,34.27 51.407,34.27 51.407,34.27 H 800 898.527 c 0,0 27.844,0 51.407,-34.27 2.25,-3.28 4.367,-6.87 6.414,-10.62 18.679,10.7 31.363,30.81 31.363,53.77 v 103.87 c 0,32.71 -25.707,59.63 -57.902,61.75"
       style="fill:#393536;fill-opacity:1;fill-rule:nonzero;stroke:none"
       id="path253" /><path
       d="m 800,2297.76 c -78.609,0 -108.84,-102.79 -108.84,-102.79 0,129 108.84,149.15 108.84,149.15 0,0 108.84,-20.15 108.84,-149.15 0,0 -30.231,102.79 -108.84,102.79 z m -28.219,-130.05 c 0,25.6 12.633,46.35 28.219,46.35 15.586,0 28.219,-20.75 28.219,-46.35 0,-25.61 -12.633,-46.36 -28.219,-46.36 -15.586,0 -28.219,20.75 -28.219,46.36 z M 885.676,1949.29 H 714.324 c -10.601,0 -19.277,8.67 -19.277,19.27 0,10.6 8.676,19.28 19.277,19.28 h 171.352 c 10.601,0 19.277,-8.68 19.277,-19.28 0,-10.6 -8.676,-19.27 -19.277,-19.27 z m -17.137,-66.4 H 731.461 c -8.246,0 -14.996,6.74 -14.996,14.99 0,8.25 6.75,14.99 14.996,14.99 h 137.078 c 8.246,0 14.996,-6.74 14.996,-14.99 0,-8.25 -6.75,-14.99 -14.996,-14.99 z m 101.297,224.35 c -5.52,18.14 -22.699,62.48 -22.699,86.67 0,24.19 12.093,26.2 20.183,72.56 8.09,46.36 -4.058,104.81 -26.23,137.06 -22.172,32.25 -48.371,32.25 -48.371,32.25 H 800 707.281 c 0,0 -26.203,0 -48.371,-32.25 -22.172,-32.25 -34.32,-90.7 -26.23,-137.06 8.09,-46.36 20.183,-48.37 20.183,-72.56 0,-24.19 -17.179,-68.53 -22.699,-86.67 -5.519,-18.14 10.606,-195.29 46.887,-255.76 36.277,-60.46 122.949,-76.36 122.949,-76.36 0,0 86.672,15.9 122.949,76.36 36.281,60.47 52.406,237.62 46.887,255.76"
       style="fill:#393536;fill-opacity:1;fill-rule:nonzero;stroke:none"
       id="path255" /><path
       d="m 3825.47,2524.31 h -58.12 c -9.13,0 -16.6,7.47 -16.6,16.6 v 0 c 0,9.14 7.47,16.61 16.6,16.61 h 58.12 c 9.13,0 16.61,-7.47 16.61,-16.61 v 0 c 0,-9.13 -7.48,-16.6 -16.61,-16.6"
       style="fill:#393536;fill-opacity:1;fill-rule:nonzero;stroke:none"
       id="path257" /><path
       d="m 3825.47,2462.04 h -58.12 c -9.13,0 -16.6,7.47 -16.6,16.6 v 0 c 0,9.14 7.47,16.61 16.6,16.61 h 58.12 c 9.13,0 16.61,-7.47 16.61,-16.61 v 0 c 0,-9.13 -7.48,-16.6 -16.61,-16.6"
       style="fill:#393536;fill-opacity:1;fill-rule:nonzero;stroke:none"
       id="path259" /><path
       d="m 3825.47,2399.77 h -58.12 c -9.13,0 -16.6,7.47 -16.6,16.61 v 0 c 0,9.13 7.47,16.6 16.6,16.6 h 58.12 c 9.13,0 16.61,-7.47 16.61,-16.6 v 0 c 0,-9.14 -7.48,-16.61 -16.61,-16.61"
       style="fill:#393536;fill-opacity:1;fill-rule:nonzero;stroke:none"
       id="path261" /><path
       d="m 3825.47,2337.5 h -58.12 c -9.13,0 -16.6,7.47 -16.6,16.61 v 0 c 0,9.13 7.47,16.6 16.6,16.6 h 58.12 c 9.13,0 16.61,-7.47 16.61,-16.6 v 0 c 0,-9.14 -7.48,-16.61 -16.61,-16.61"
       style="fill:#393536;fill-opacity:1;fill-rule:nonzero;stroke:none"
       id="path263" /><path
       d="m 3825.47,2275.23 h -58.12 c -9.13,0 -16.6,7.47 -16.6,16.61 v 0 c 0,9.13 7.47,16.6 16.6,16.6 h 58.12 c 9.13,0 16.61,-7.47 16.61,-16.6 v 0 c 0,-9.14 -7.48,-16.61 -16.61,-16.61"
       style="fill:#393536;fill-opacity:1;fill-rule:nonzero;stroke:none"
       id="path265" /><path
       d="m 3825.47,2212.96 h -58.12 c -9.13,0 -16.6,7.48 -16.6,16.61 v 0 c 0,9.13 7.47,16.6 16.6,16.6 h 58.12 c 9.13,0 16.61,-7.47 16.61,-16.6 v 0 c 0,-9.13 -7.48,-16.61 -16.61,-16.61"
       style="fill:#393536;fill-opacity:1;fill-rule:nonzero;stroke:none"
       id="path267" /><path
       d="m 3374.53,2524.31 h 58.12 c 9.13,0 16.6,7.47 16.6,16.6 v 0 c 0,9.14 -7.47,16.61 -16.6,16.61 h -58.12 c -9.13,0 -16.61,-7.47 -16.61,-16.61 v 0 c 0,-9.13 7.48,-16.6 16.61,-16.6"
       style="fill:#393536;fill-opacity:1;fill-rule:nonzero;stroke:none"
       id="path269" /><path
       d="m 3374.53,2462.04 h 58.12 c 9.13,0 16.6,7.47 16.6,16.6 v 0 c 0,9.14 -7.47,16.61 -16.6,16.61 h -58.12 c -9.13,0 -16.61,-7.47 -16.61,-16.61 v 0 c 0,-9.13 7.48,-16.6 16.61,-16.6"
       style="fill:#393536;fill-opacity:1;fill-rule:nonzero;stroke:none"
       id="path271" /><path
       d="m 3374.53,2399.77 h 58.12 c 9.13,0 16.6,7.47 16.6,16.61 v 0 c 0,9.13 -7.47,16.6 -16.6,16.6 h -58.12 c -9.13,0 -16.61,-7.47 -16.61,-16.6 v 0 c 0,-9.14 7.48,-16.61 16.61,-16.61"
       style="fill:#393536;fill-opacity:1;fill-rule:nonzero;stroke:none"
       id="path273" /><path
       d="m 3374.53,2337.5 h 58.12 c 9.13,0 16.6,7.47 16.6,16.61 v 0 c 0,9.13 -7.47,16.6 -16.6,16.6 h -58.12 c -9.13,0 -16.61,-7.47 -16.61,-16.6 v 0 c 0,-9.14 7.48,-16.61 16.61,-16.61"
       style="fill:#393536;fill-opacity:1;fill-rule:nonzero;stroke:none"
       id="path275" /><path
       d="m 3374.53,2275.23 h 58.12 c 9.13,0 16.6,7.47 16.6,16.61 v 0 c 0,9.13 -7.47,16.6 -16.6,16.6 h -58.12 c -9.13,0 -16.61,-7.47 -16.61,-16.6 v 0 c 0,-9.14 7.48,-16.61 16.61,-16.61"
       style="fill:#393536;fill-opacity:1;fill-rule:nonzero;stroke:none"
       id="path277" /><path
       d="m 3374.53,2212.96 h 58.12 c 9.13,0 16.6,7.48 16.6,16.61 v 0 c 0,9.13 -7.47,16.6 -16.6,16.6 h -58.12 c -9.13,0 -16.61,-7.47 -16.61,-16.6 v 0 c 0,-9.13 7.48,-16.61 16.61,-16.61"
       style="fill:#393536;fill-opacity:1;fill-rule:nonzero;stroke:none"
       id="path279" /><path
       d="m 3691.33,2540.77 c 0,-9.05 -7.41,-16.46 -16.47,-16.46 -9.05,0 -16.47,7.41 -16.47,16.46 v 0.28 c 0,9.06 7.42,16.47 16.47,16.47 9.06,0 16.47,-7.41 16.47,-16.47 z m 0,-62.26 c 0,-9.06 -7.41,-16.47 -16.47,-16.47 -9.05,0 -16.47,7.41 -16.47,16.47 v 0.27 c 0,9.06 7.42,16.47 16.47,16.47 9.06,0 16.47,-7.41 16.47,-16.47 z m 0,-62.27 c 0,-9.06 -7.41,-16.47 -16.47,-16.47 -9.05,0 -16.47,7.41 -16.47,16.47 v 0.27 c 0,9.06 7.42,16.47 16.47,16.47 9.06,0 16.47,-7.41 16.47,-16.47 z m 0,-62.27 c 0,-9.06 -7.41,-16.47 -16.47,-16.47 -9.05,0 -16.47,7.41 -16.47,16.47 v 0.27 c 0,9.06 7.42,16.47 16.47,16.47 9.06,0 16.47,-7.41 16.47,-16.47 z m 0,-62.27 c 0,-9.06 -7.41,-16.47 -16.47,-16.47 -9.05,0 -16.47,7.41 -16.47,16.47 v 0.28 c 0,9.05 7.42,16.46 16.47,16.46 9.06,0 16.47,-7.41 16.47,-16.46 z m 0,-62.27 c 0,-9.06 -7.41,-16.47 -16.47,-16.47 -9.05,0 -16.47,7.41 -16.47,16.47 v 0.28 c 0,9.05 7.42,16.46 16.47,16.46 9.06,0 16.47,-7.41 16.47,-16.46 z m -74.86,374.08 c 0,-9.06 -7.41,-16.47 -16.47,-16.47 -9.06,0 -16.47,7.41 -16.47,16.47 v 0.27 c 0,9.06 7.41,16.47 16.47,16.47 9.06,0 16.47,-7.41 16.47,-16.47 z m 0,-62.74 c 0,-9.05 -7.41,-16.46 -16.47,-16.46 -9.06,0 -16.47,7.41 -16.47,16.46 v 0.28 c 0,9.06 7.41,16.47 16.47,16.47 9.06,0 16.47,-7.41 16.47,-16.47 z m 0,-62.26 c 0,-9.06 -7.41,-16.47 -16.47,-16.47 -9.06,0 -16.47,7.41 -16.47,16.47 v 0.27 c 0,9.06 7.41,16.47 16.47,16.47 9.06,0 16.47,-7.41 16.47,-16.47 z m 0,-62.27 c 0,-9.06 -7.41,-16.47 -16.47,-16.47 -9.06,0 -16.47,7.41 -16.47,16.47 v 0.27 c 0,9.06 7.41,16.47 16.47,16.47 9.06,0 16.47,-7.41 16.47,-16.47 z m 0,-62.27 c 0,-9.06 -7.41,-16.47 -16.47,-16.47 -9.06,0 -16.47,7.41 -16.47,16.47 v 0.27 c 0,9.06 7.41,16.47 16.47,16.47 9.06,0 16.47,-7.41 16.47,-16.47 z m 0,-62.27 c 0,-9.06 -7.41,-16.47 -16.47,-16.47 -9.06,0 -16.47,7.41 -16.47,16.47 v 0.28 c 0,9.05 7.41,16.46 16.47,16.46 9.06,0 16.47,-7.41 16.47,-16.46 z m 0,-62.27 c 0,-9.06 -7.41,-16.47 -16.47,-16.47 -9.06,0 -16.47,7.41 -16.47,16.47 v 0.28 c 0,9.05 7.41,16.46 16.47,16.46 9.06,0 16.47,-7.41 16.47,-16.46 z m 0,-58.67 c 0,-9.06 -7.41,-16.47 -16.47,-16.47 -9.06,0 -16.47,7.41 -16.47,16.47 v 0.28 c 0,9.05 7.41,16.46 16.47,16.46 9.06,0 16.47,-7.41 16.47,-16.46 z m -74.87,370.01 c 0,-9.05 -7.41,-16.46 -16.46,-16.46 -9.06,0 -16.47,7.41 -16.47,16.46 v 0.28 c 0,9.06 7.41,16.47 16.47,16.47 9.05,0 16.46,-7.41 16.46,-16.47 z m 0,-62.26 c 0,-9.06 -7.41,-16.47 -16.46,-16.47 -9.06,0 -16.47,7.41 -16.47,16.47 v 0.27 c 0,9.06 7.41,16.47 16.47,16.47 9.05,0 16.46,-7.41 16.46,-16.47 z m 0,-62.27 c 0,-9.06 -7.41,-16.47 -16.46,-16.47 -9.06,0 -16.47,7.41 -16.47,16.47 v 0.27 c 0,9.06 7.41,16.47 16.47,16.47 9.05,0 16.46,-7.41 16.46,-16.47 z m 0,-62.27 c 0,-9.06 -7.41,-16.47 -16.46,-16.47 -9.06,0 -16.47,7.41 -16.47,16.47 v 0.27 c 0,9.06 7.41,16.47 16.47,16.47 9.05,0 16.46,-7.41 16.46,-16.47 z m 0,-62.27 c 0,-9.06 -7.41,-16.47 -16.46,-16.47 -9.06,0 -16.47,7.41 -16.47,16.47 v 0.28 c 0,9.05 7.41,16.46 16.47,16.46 9.05,0 16.46,-7.41 16.46,-16.46 z m 0,-62.27 c 0,-9.06 -7.41,-16.47 -16.46,-16.47 -9.06,0 -16.47,7.41 -16.47,16.47 v 0.28 c 0,9.05 7.41,16.46 16.47,16.46 9.05,0 16.46,-7.41 16.46,-16.46 z m 58.4,423.72 v 0 c -68.5,0 -124.54,-56.04 -124.54,-124.54 v -269.83 c 0,-68.5 56.04,-124.54 124.54,-124.54 v 0 c 68.5,0 124.54,56.04 124.54,124.54 v 269.83 c 0,68.5 -56.04,124.54 -124.54,124.54"
       style="fill:#393536;fill-opacity:1;fill-rule:nonzero;stroke:none"
       id="path281" /><path
       d="m 3645.68,2108.68 h -91.36 c -0.76,-6.08 -1.1,-12.51 -1.1,-19.17 l -20,-275.88 c 0,-36.73 30.05,-66.78 66.78,-66.78 36.73,0 66.78,30.05 66.78,66.78 l -20,275.88 c 0,6.66 -0.34,13.09 -1.1,19.17"
       style="fill:#393536;fill-opacity:1;fill-rule:nonzero;stroke:none"
       id="path283" /><path
       d="m 6296.59,1840.44 c -16.42,-3.45 -32.29,-0.28 -44.69,8.92 -2.02,1.5 -3.94,3.16 -5.71,4.92 -21.08,21.09 -21.39,57.99 -0.72,85.83 11.22,15.12 26.86,25.43 44.04,29.03 16.43,3.45 32.3,0.28 44.7,-8.92 2.02,-1.5 3.94,-3.16 5.7,-4.93 21.09,-21.08 21.4,-57.98 0.73,-85.83 -11.22,-15.11 -26.86,-25.42 -44.05,-29.02 z m 126.89,383.11 c -7.63,7.64 -7.63,20.02 0,27.65 7.64,7.63 20.01,7.63 27.65,0 7.63,-7.63 7.63,-20.01 0,-27.65 -7.64,-7.63 -20.01,-7.63 -27.65,0 z m -283.44,-178.01 c -27.85,-20.67 -64.74,-20.36 -85.83,0.73 -1.77,1.76 -3.42,3.68 -4.92,5.7 -19.48,26.24 -10.46,66.05 20.1,88.74 27.85,20.67 64.75,20.36 85.83,-0.72 1.77,-1.77 3.43,-3.69 4.93,-5.71 19.48,-26.24 10.46,-66.05 -20.11,-88.74 z m 227.86,-196.32 c 28.03,37.76 28.96,87.8 3.7,121.23 22.85,143.87 99.83,220.87 99.83,220.87 l 20.85,35.06 302.55,254.28 0.05,28.59 -206.89,-121.86 122.57,206.18 -29.97,1.33 -254.6,-302.93 -34.74,-20.47 c 0,0 -77,-76.98 -220.87,-99.83 -33.44,25.26 -83.47,24.33 -121.23,-3.7 -45.6,-33.85 -57.76,-94.97 -27.12,-136.24 2.48,-3.34 5.23,-6.53 8.17,-9.47 0.01,0 0,0 0,0 32.9,-32.9 88.82,-34.61 130.08,-3.98 33.22,24.67 48.68,63.8 42.78,99.19 17.5,13.88 54.11,39.87 93.76,49.76 35.34,8.82 64.06,21.15 91.28,20.94 0.21,-27.22 -12.12,-55.93 -20.94,-91.27 -9.88,-39.6 -35.81,-76.17 -49.7,-93.7 -11.24,1.9 -23.02,1.67 -34.92,-0.83 -25.32,-5.31 -48.16,-20.23 -64.33,-42.02 -30.63,-41.26 -28.92,-97.18 3.98,-130.07 2.93,-2.94 6.12,-5.7 9.47,-8.18 20.31,-15.08 45.85,-20.37 71.91,-14.89 25.31,5.31 48.16,20.23 64.33,42.01"
       style="fill:#393536;fill-opacity:1;fill-rule:nonzero;stroke:none"
       id="path285" /><path
       d="m -1742.9335,3070.4112 c -16.42,-3.45 -32.29,-0.28 -44.69,8.92 -2.02,1.5 -3.94,3.16 -5.71,4.92 -21.08,21.09 -21.39,57.99 -0.72,85.83 11.22,15.12 26.86,25.43 44.04,29.03 16.43,3.45 32.3,0.28 44.7,-8.92 2.02,-1.5 3.94,-3.16 5.7,-4.93 21.09,-21.08 21.4,-57.98 0.73,-85.83 -11.22,-15.11 -26.86,-25.42 -44.05,-29.02 z m 126.89,383.11 c -7.63,7.64 -7.63,20.02 0,27.65 7.64,7.63 20.01,7.63 27.65,0 7.63,-7.63 7.63,-20.01 0,-27.65 -7.64,-7.63 -20.01,-7.63 -27.65,0 z m -283.44,-178.01 c -27.85,-20.67 -64.74,-20.36 -85.83,0.73 -1.77,1.76 -3.42,3.68 -4.92,5.7 -19.48,26.24 -10.46,66.05 20.1,88.74 27.85,20.67 64.75,20.36 85.83,-0.72 1.77,-1.77 3.43,-3.69 4.93,-5.71 19.48,-26.24 10.46,-66.05 -20.11,-88.74 z m 227.86,-196.32 c 28.03,37.76 28.96,87.8 3.7,121.23 22.85,143.87 99.83,220.87 99.83,220.87 l 20.85,35.06 302.55,254.28 0.05,28.59 -206.89,-121.86 122.57,206.18 -29.97,1.33 -254.6,-302.93 -34.74,-20.47 c 0,0 -77,-76.98 -220.87,-99.83 -33.44,25.26 -83.47,24.33 -121.23,-3.7 -45.6,-33.85 -57.76,-94.97 -27.12,-136.24 2.48,-3.34 5.23,-6.53 8.17,-9.47 0.01,0 0,0 0,0 32.9,-32.9 88.82,-34.61 130.08,-3.98 33.22,24.67 48.68,63.8 42.78,99.19 17.5,13.88 54.11,39.87 93.76,49.76 35.34,8.82 64.06,21.15 91.28,20.94 0.21,-27.22 -12.12,-55.93 -20.94,-91.27 -9.88,-39.6 -35.81,-76.17 -49.7,-93.7 -11.24,1.9 -23.02,1.67 -34.92,-0.83 -25.32,-5.31 -48.16,-20.23 -64.33,-42.02 -30.63,-41.26 -28.92,-97.18 3.98,-130.07 2.93,-2.94 6.12,-5.7 9.47,-8.18 20.31,-15.08 45.85,-20.37 71.91,-14.89 25.31,5.31 48.16,20.23 64.33,42.01"
       style="fill:#eeebf3;fill-opacity:1;fill-rule:nonzero;stroke:none"
       id="path285-6" /><path
       d="m 7800,2157.35 h -101.89 l -18.29,-32.55 h 240.36 l -18.29,32.55 H 7800"
       style="fill:#393536;fill-opacity:1;fill-rule:nonzero;stroke:none"
       id="path287" /><path
       d="m 7800,2175.34 h 105.16 l 105.16,273.21 c -54.11,63 -210.32,75.12 -210.32,75.12 0,0 -154.27,0 -210.32,-75.12 l 105.16,-273.21 H 7800"
       style="fill:#393536;fill-opacity:1;fill-rule:nonzero;stroke:none"
       id="path289" /><path
       d="m 7679.82,2104.38 v -193 c 0,0 57.58,-35.05 120.18,-35.05 62.59,0 120.18,35.05 120.18,35.05 v 193 H 7800 7679.82"
       style="fill:#393536;fill-opacity:1;fill-rule:nonzero;stroke:none"
       id="path291" /><path
       d="m 2090.62,959.652 c -8.69,-23.183 -35.57,-34.543 -60.05,-25.363 -24.47,9.18 -37.26,35.41 -28.56,58.602 8.69,23.179 35.58,34.529 60.05,25.349 24.48,-9.18 37.26,-35.408 28.56,-58.588 z m 247.31,58.588 c 24.48,9.18 51.36,-2.17 60.05,-25.349 8.7,-23.192 -4.08,-49.422 -28.55,-58.602 -24.47,-9.18 -51.37,2.18 -60.06,25.363 -8.69,23.18 4.09,49.408 28.56,58.588 z m 91.12,-400.658 c -7.47,34.039 -63.49,90.098 -63.49,90.098 -85.66,82.07 -101.61,93.562 -129.95,125.629 15.52,26.023 37.67,62.632 52.49,84.839 0,0 5.8,7.481 13.27,-0.828 0,0 58.96,-59.769 114.58,12.461 0,0 44.84,71.389 -23.25,116.219 0,0 -75.55,39.03 -112.91,-49.809 0,0 -28.33,-56.449 -43.27,-79.703 0,0 -11.56,-23.039 -36.52,-43.898 -24.95,20.859 -36.53,43.898 -36.53,43.898 -14.94,23.254 -43.27,79.703 -43.27,79.703 -37.35,88.839 -112.91,49.809 -112.91,49.809 -68.08,-44.83 -23.24,-116.219 -23.24,-116.219 55.62,-72.23 114.57,-12.461 114.57,-12.461 7.47,8.309 13.29,0.828 13.29,0.828 14.8,-22.207 36.95,-58.816 52.48,-84.839 -28.35,-32.067 -47.32,-44.567 -133.59,-129.227 0,0 -52.39,-52.461 -59.85,-86.5 0,0 -8.31,-39.633 15.78,-72.121 L 2200,771.039 2413.28,545.461 c 24.07,32.488 15.77,72.121 15.77,72.121"
       style="fill:#393536;fill-opacity:1;fill-rule:nonzero;stroke:none"
       id="path293" /><path
       d="m 2203.83,2090.23 h -101.89 l -18.29,-32.55 h 240.37 l -18.3,32.55 h -101.89"
       style="fill:#393536;fill-opacity:1;fill-rule:nonzero;stroke:none"
       id="path295" /><path
       d="m 2083.65,2037.27 v -193 c 0,0 57.59,-35.05 120.18,-35.05 62.6,0 120.19,35.05 120.19,35.05 v 193 h -120.19 -120.18"
       style="fill:#393536;fill-opacity:1;fill-rule:nonzero;stroke:none"
       id="path297" /><path
       d="m 2163.37,2590.78 c 0,0 189.82,-141.88 199.41,-329.78 0,0 -7.67,-130.38 -70.94,-141.89 h -195.57 c 0,0 -63.84,65.19 -58.76,176.4 5.07,111.21 175.72,157.22 125.86,295.27"
       style="fill:#393536;fill-opacity:1;fill-rule:nonzero;stroke:none"
       id="path299" /><path
       d="m 7798.36,549.41 c -83.35,0 -121.86,50.36 -136.35,76.899 -55.05,-5.09 -79.9,-39.079 -80.16,-39.457 -5.71,-8.313 -16.29,-11.821 -25.84,-8.512 -63.08,21.84 -60.45,98.32 -60.3,101.558 5.18,123.301 141.66,160.082 194.27,169.704 v 178.558 c 0,12.39 10.04,22.43 22.43,22.43 12.38,0 22.42,-10.04 22.42,-22.43 V 830.309 c 0,-11.5 -8.69,-21.137 -20.14,-22.309 -1.67,-0.18 -169.52,-19.098 -174.17,-130.02 -0.01,-0.339 -0.88,-33.628 18.13,-50.269 18.64,17.68 56.65,44.102 117.31,44.102 9.6,0 18.15,-6.122 21.24,-15.211 0.85,-2.391 23.19,-62.332 101.16,-62.332 79.64,0 104.49,62.492 104.72,63.121 3.32,8.679 11.65,14.422 20.95,14.422 60.67,0 98.67,-26.422 117.31,-44.102 19.02,16.641 18.15,49.93 18.13,50.328 C 8054.8,789.32 7888.09,807.82 7886.41,808 c -11.43,1.18 -20.13,10.809 -20.13,22.309 v 197.851 c 0,12.39 10.04,22.43 22.44,22.43 12.38,0 22.42,-10.04 22.42,-22.43 V 849.582 c 52.4,-9.652 187.98,-46.48 193.15,-169.723 0.14,-3.199 2.77,-79.679 -60.31,-101.519 -9.55,-3.309 -20.13,0.18 -25.84,8.512 -0.98,1.367 -25.42,34.699 -80.62,39.519 -15.2,-26.133 -55.52,-76.961 -139.16,-76.961"
       style="fill:#393536;fill-opacity:1;fill-rule:nonzero;stroke:none"
       id="path301" /></g></svg>
