<svg width="229" height="77" viewBox="0 0 257 77" fill="none" xmlns="http://www.w3.org/2000/svg">
<path d="M29.9922 41.1889L27.8957 41.5726L27.2961 39.9434L31.2639 38.4832C31.6318 38.3478 32.1947 38.1207 32.9526 37.802C33.9429 37.358 34.8497 36.9846 35.673 36.6815C37.4949 36.0111 39.0152 35.7102 40.2339 35.7788C41.4637 35.8235 42.4522 36.1857 43.1996 36.8654C43.9581 37.5211 44.5727 38.4884 45.0433 39.7672C45.8556 41.9745 45.7954 43.9459 44.8628 45.6815C43.9477 47.4106 42.2726 48.7232 39.8376 49.6193C38.8741 49.9739 38.1725 50.2023 37.7327 50.3045L39.6377 55.481L43.2556 54.448L43.8358 56.0246L34.376 59.5059L33.7958 57.9293L35.775 56.9026L29.9922 41.1889ZM37.0875 48.6324C37.5227 48.5717 38.222 48.3641 39.1855 48.0095C40.3592 47.5776 41.1481 46.8297 41.5523 45.766C41.9675 44.6784 41.827 43.1885 41.1307 41.2966C40.5892 39.8251 39.8719 38.8757 38.9787 38.4486C38.0966 37.9975 36.9987 38.0137 35.6848 38.4972C35.1943 38.6777 34.6992 38.8997 34.1994 39.1632C33.9671 39.2885 33.7983 39.3705 33.6932 39.4091L37.0875 48.6324Z" fill="white"/>
<path d="M47.2543 33.3738L45.1065 33.5929L44.7017 32.1361L49.5546 30.1481L49.6356 30.1257L50.4794 30.4433L52.1782 36.4518L52.6416 38.8514C53.0592 38.1929 53.6846 37.5153 54.5179 36.8188C55.3691 36.1173 56.3253 35.6191 57.3864 35.3242C58.5195 35.0093 59.4607 34.9802 60.2102 35.237C60.9546 35.4757 61.5727 35.9917 62.0644 36.785C62.5561 37.5783 63.0018 38.6944 63.4017 40.1332L65.4633 47.5521L67.2573 47.3151L67.7072 48.9338L60.612 50.9054L60.1622 49.2868L61.6594 48.6092L59.5978 41.1903C59.3379 40.2551 59.0725 39.5442 58.8017 39.0576C58.5309 38.571 58.1896 38.2493 57.7779 38.0924C57.3842 37.9306 56.8636 37.9397 56.2162 38.1196C55.6586 38.2745 55.1206 38.5693 54.602 39.0041C54.0965 39.4158 53.6689 39.864 53.3192 40.3486L56.0481 50.1685L57.7612 49.954L58.211 51.5727L51.2238 53.5144L50.774 51.8957L52.2247 51.26L47.2543 33.3738Z" fill="white"/>
<path d="M67.3979 30.7439C66.7408 30.8843 66.1795 30.8038 65.7143 30.5024C65.249 30.2009 64.952 29.749 64.8233 29.1466C64.6751 28.453 64.7712 27.8311 65.1118 27.2811C65.4524 26.7312 65.9878 26.3782 66.718 26.2221C67.4482 26.0661 68.0478 26.1479 68.517 26.4676C68.9823 26.769 69.2773 27.2118 69.4021 27.7959C69.5582 28.5261 69.4639 29.1571 69.1195 29.6888C68.775 30.2205 68.2103 30.5703 67.4253 30.738L67.3979 30.7439ZM67.035 36.147L64.9797 36.0422L64.5877 34.2076L69.4699 32.5344L69.5246 32.5227L70.4083 32.9065L73.2228 46.0772L75.1042 45.9042L75.4553 47.5471L67.8157 49.1796L67.4647 47.5367L69.3287 46.8807L67.035 36.147Z" fill="white"/>
<path d="M74.8991 26.9328L72.7954 26.9212L72.5419 25.4306L77.5454 23.955L77.6006 23.9457L78.4351 24.3434L81.8754 44.577L83.928 44.4552L84.2096 46.1114L76.3978 47.4397L76.1162 45.7835L78.0062 45.2065L74.8991 26.9328Z" fill="white"/>
<path d="M86.6277 27.5915C85.9611 27.6761 85.4086 27.5487 84.9704 27.2092C84.5321 26.8697 84.2742 26.3944 84.1966 25.7833C84.1072 25.0797 84.2554 24.4681 84.641 23.9487C85.0266 23.4293 85.5898 23.1226 86.3305 23.0286C87.0713 22.9345 87.6619 23.0665 88.1025 23.4245C88.5408 23.764 88.7976 24.23 88.8728 24.8226C88.9669 25.5633 88.8199 26.1841 88.4319 26.685C88.0439 27.1858 87.4518 27.4868 86.6555 27.5879L86.6277 27.5915ZM85.8117 32.9449L83.7725 32.6676L83.5362 30.8066L88.5417 29.5499L88.5973 29.5429L89.4456 29.9997L91.1423 43.3604L93.0316 43.3462L93.2432 45.0129L85.4934 45.997L85.2818 44.3304L87.1944 43.8335L85.8117 32.9449Z" fill="white"/>
<path d="M109.262 35.608C109.365 37.1726 109.134 38.6283 108.568 39.9751C108.02 41.3206 107.148 42.4257 105.952 43.2902C104.773 44.1349 103.327 44.6137 101.613 44.7266C101.241 44.7511 100.847 44.7396 100.432 44.6921C100.037 44.662 99.7159 44.6084 99.4676 44.5312L99.7042 46.8446L99.8717 49.3871L102.492 49.5512L102.597 51.1438L94.2991 51.6905L94.1942 50.0979L95.9881 49.643L94.8211 31.9294L92.9719 31.5461L92.8449 29.6183L97.4162 28.7279L97.4721 28.7242L98.2074 29.2369L98.3105 30.8016C98.7381 30.1935 99.3383 29.6488 100.111 29.1677C100.884 28.6865 101.745 28.4146 102.695 28.352C104.464 28.2354 105.959 28.773 107.179 29.9647C108.397 31.1378 109.092 33.0189 109.262 35.608ZM101.395 30.7667C100.836 30.8035 100.313 30.9596 99.8262 31.2348C99.3393 31.5101 98.9752 31.8054 98.7341 32.1206L99.417 42.4861C99.5597 42.6638 99.8309 42.8049 100.231 42.9095C100.649 43.0129 101.1 43.0486 101.585 43.0167C102.795 42.937 103.72 42.3522 104.359 41.2625C105.016 40.153 105.27 38.4713 105.121 36.2175C104.996 34.3176 104.596 32.9223 103.919 32.0315C103.242 31.122 102.401 30.7004 101.395 30.7667Z" fill="white"/>
<path d="M112.924 31.9452L112.921 31.5533C113.143 31.3462 113.401 30.9334 113.695 30.3151C114.008 29.678 114.272 28.9385 114.49 28.0968C114.707 27.2364 114.812 26.3955 114.806 25.5742C114.804 25.3315 114.737 25.1174 114.605 24.9318C114.473 24.7461 114.275 24.5143 114.011 24.2364C113.673 23.9031 113.409 23.5972 113.22 23.3186C113.05 23.04 112.963 22.6766 112.959 22.2287C112.955 21.6687 113.129 21.21 113.481 20.8525C113.851 20.4949 114.316 20.3139 114.876 20.3095C115.436 20.305 115.951 20.497 116.421 20.8853C116.891 21.2736 117.259 21.8027 117.525 22.4726C117.811 23.1237 117.956 23.8413 117.962 24.6252C117.972 25.8572 117.758 27.0536 117.319 28.2144C116.898 29.3565 116.365 30.3407 115.718 31.1672C115.09 31.9748 114.497 32.5302 113.939 32.8333L112.924 31.9452Z" fill="white"/>
<path d="M122.313 41.8814C122.452 42.1115 122.779 42.3401 123.293 42.5673C123.826 42.7766 124.362 42.8926 124.903 42.9154C125.78 42.9523 126.44 42.8026 126.884 42.4664C127.347 42.1122 127.592 41.6367 127.617 41.0399C127.643 40.4245 127.393 39.9189 126.868 39.5231C126.344 39.1086 125.45 38.5945 124.186 37.9808L123.417 37.6121C122.153 37.0171 121.22 36.3238 120.618 35.5325C120.016 34.7411 119.741 33.7393 119.792 32.527C119.827 31.6878 120.111 30.9524 120.642 30.3208C121.174 29.6706 121.904 29.1783 122.834 28.8438C123.763 28.5093 124.825 28.3672 126.019 28.4175C126.895 28.4544 127.639 28.5418 128.25 28.6796C128.879 28.8182 129.535 28.9953 130.217 29.2109C130.584 29.3572 130.861 29.4435 131.047 29.4701L130.892 33.1348L128.682 33.0417L128.128 30.8885C128.024 30.6973 127.78 30.5188 127.394 30.3531C127.009 30.1874 126.564 30.0939 126.061 30.0727C125.296 30.0405 124.674 30.1824 124.193 30.4985C123.732 30.7967 123.49 31.2349 123.465 31.813C123.443 32.3352 123.583 32.7802 123.886 33.1479C124.188 33.4969 124.522 33.7726 124.888 33.9748C125.253 34.177 125.93 34.5138 126.919 34.9852C127.908 35.4566 128.721 35.9018 129.357 36.321C130.012 36.7409 130.54 37.277 130.943 37.9292C131.364 38.5635 131.556 39.3282 131.518 40.2234C131.46 41.6036 130.872 42.6998 129.755 43.5121C128.637 44.3244 127.061 44.6878 125.028 44.6021C124.077 44.5621 123.223 44.442 122.465 44.2419C121.726 44.0427 120.869 43.7823 119.892 43.4609L119.285 43.2392L119.44 39.5464L121.762 39.6443L122.313 41.8814Z" fill="white"/>
<path d="M150.05 47.3268C146.915 46.8361 144.664 45.5295 143.295 43.407C141.93 41.2661 141.501 38.5728 142.009 35.327C142.344 33.1877 143.069 31.3929 144.184 29.9425C145.321 28.4766 146.722 27.4301 148.388 26.8029C150.055 26.1757 151.856 26.0136 153.793 26.3167C154.604 26.4437 155.379 26.6217 156.118 26.8507C156.86 27.0613 157.734 27.3304 158.741 27.658C159.495 27.9084 159.909 28.0393 159.983 28.0508L158.787 33.7018L156.242 33.3035L156.003 29.2134C155.832 28.9788 155.508 28.758 155.03 28.5509C154.552 28.3439 153.926 28.1798 153.151 28.0585C151.584 27.8132 150.207 28.3439 149.02 29.6507C147.854 30.942 147.056 32.9616 146.626 35.7094C146.21 38.3651 146.323 40.6028 146.964 42.4225C147.605 44.2421 148.792 45.2876 150.526 45.559C151.355 45.6889 152.003 45.7147 152.469 45.6364C152.956 45.5426 153.379 45.3727 153.739 45.1267L155.402 42.4679L157.691 43.053L156.467 47.2541C156.074 47.2304 155.675 47.2436 155.27 47.2936C154.887 47.3281 154.648 47.3473 154.553 47.3513C153.783 47.4387 153.067 47.4872 152.405 47.4969C151.757 47.5278 150.973 47.4711 150.05 47.3268Z" fill="white"/>
<path d="M170.81 51.8073C170.212 51.6627 169.807 51.4306 169.596 51.1109C169.385 50.7911 169.341 50.3772 169.464 49.8691L169.641 49.1342C169.006 49.6148 168.188 49.9836 167.185 50.2408C166.186 50.4798 165.242 50.4921 164.353 50.2774C162.611 49.857 161.475 49.1124 160.946 48.0437C160.421 46.9568 160.408 45.3791 160.908 43.3105L162.76 35.6349L161.491 34.9254L161.866 33.374L166.578 34.137L166.606 34.1435L167.058 34.656L164.745 44.2369C164.426 45.5615 164.366 46.5263 164.565 47.1314C164.765 47.7364 165.309 48.1463 166.198 48.3609C167.269 48.6193 168.368 48.4428 169.495 47.8315L171.906 37.8424L170.181 36.9939L170.548 35.4697L175.56 36.305L175.615 36.3181L176.176 36.8569L172.944 50.2483L174.468 50.6162L174.066 52.1611C173.989 52.1617 173.636 52.1533 173.007 52.1357C172.377 52.1182 171.645 52.0087 170.81 51.8073Z" fill="white"/>
<path d="M179.429 54.4406C178.307 54.0886 177.56 53.5706 177.187 52.8864C176.815 52.2023 176.805 51.2992 177.157 50.1771L180.232 40.3721L178.496 39.8274L178.931 38.4382C179.091 38.4294 179.377 38.4214 179.79 38.414C180.209 38.3889 180.53 38.3625 180.754 38.3349C181.129 38.1983 181.513 37.8786 181.906 37.3757C182.183 37.0519 182.768 36.2179 183.659 34.8737L185.796 35.5441L184.671 39.5049L188.759 40.7871L188.114 42.8443L184.053 41.5705L181.698 49.0778C181.385 50.0753 181.191 50.7872 181.116 51.2136C181.041 51.64 181.073 51.9435 181.212 52.124C181.357 52.2868 181.652 52.438 182.097 52.5776C182.542 52.7173 183.019 52.818 183.528 52.8798C184.042 52.9238 184.482 52.9248 184.848 52.8829L184.886 54.5382C184.27 54.7558 183.433 54.8652 182.377 54.8663C181.32 54.8674 180.337 54.7255 179.429 54.4406Z" fill="white"/>
<path d="M189.917 55.3823C189.977 55.6448 190.215 55.9648 190.63 56.3424C191.07 56.7092 191.543 56.9887 192.049 57.181C192.869 57.4927 193.543 57.559 194.07 57.38C194.622 57.1901 195.003 56.816 195.216 56.2577C195.434 55.6818 195.357 55.1233 194.984 54.582C194.617 54.0233 193.931 53.2534 192.926 52.2724L192.312 51.6798C191.301 50.7162 190.634 49.764 190.313 48.8232C189.991 47.8823 190.046 46.8448 190.477 45.7106C190.776 44.9253 191.276 44.3169 191.98 43.8852C192.689 43.4361 193.538 43.1995 194.526 43.1754C195.513 43.1513 196.566 43.3515 197.682 43.7759C198.502 44.0875 199.181 44.4051 199.717 44.7286C200.27 45.0588 200.836 45.4338 201.416 45.8536C201.718 46.1084 201.954 46.2776 202.121 46.3614L200.818 49.7901L198.751 49.0044L198.905 46.7864C198.866 46.5721 198.69 46.3256 198.377 46.0467C198.064 45.7679 197.671 45.5389 197.2 45.3599C196.485 45.088 195.849 45.0263 195.294 45.1746C194.762 45.3121 194.394 45.6513 194.188 46.1922C194.002 46.6808 193.995 47.1472 194.166 47.5915C194.343 48.0183 194.573 48.3852 194.856 48.6923C195.138 48.9995 195.674 49.5327 196.464 50.2921C197.254 51.0515 197.885 51.7305 198.356 52.329C198.845 52.9341 199.177 53.6096 199.353 54.3554C199.553 55.0904 199.494 55.8766 199.176 56.7142C198.685 58.0054 197.781 58.8601 196.464 59.2781C195.147 59.6962 193.537 59.5439 191.635 58.8211C190.746 58.4829 189.973 58.0994 189.317 57.6705C188.679 57.2482 187.947 56.7305 187.122 56.1173L186.615 55.7152L187.928 52.2603L190.101 53.0858L189.917 55.3823Z" fill="white"/>
<g clip-path="url(#clip0_14_72)">
<path d="M1.67582 62.693C1.67582 64.8339 2.523 66.8872 4.03098 68.401C5.53895 69.9149 7.58421 70.7654 9.71682 70.7654C11.8494 70.7654 13.8947 69.9149 15.4027 68.401C16.9106 66.8872 17.7578 64.8339 17.7578 62.693C17.7578 60.5521 16.9106 58.4989 15.4027 56.985C13.8947 55.4711 11.8494 54.6207 9.71682 54.6207C7.58421 54.6207 5.53895 55.4711 4.03098 56.985C2.523 58.4989 1.67582 60.5521 1.67582 62.693V62.693Z" fill="url(#paint0_radial_14_72)"/>
<path d="M1.58869 58.366C1.58869 60.858 5.21093 61.3243 9.67911 61.3243C14.1473 61.3243 17.7695 60.858 17.7695 58.366C17.7695 55.874 14.1469 56.1098 9.67874 56.1098C5.21055 56.1098 1.58869 55.8739 1.58869 58.366Z" fill="url(#paint1_radial_14_72)"/>
<path d="M16.4219 25.2269H2.93763V56.8129C2.93763 59.069 16.4219 59.069 16.4219 56.8129V25.2269Z" fill="white"/>
<path d="M16.4219 52.2932C16.4219 47.7874 2.93763 47.7874 2.93763 43.2752V47.7875C2.93763 52.3 16.4219 52.3 16.4219 56.8055V52.2932Z" fill="#000080" stroke="#808080" stroke-width="0.73099"/>
<path d="M16.4219 43.2761C16.4219 38.7702 2.93763 38.7702 2.93763 34.2581V38.7703C2.93763 43.2829 16.4219 43.2829 16.4219 47.7884V43.2761Z" fill="#FF0000" stroke="#808080" stroke-width="0.73099"/>
<path d="M16.4219 34.2515C16.4219 29.7456 2.93763 29.7456 2.93763 25.2335V29.7457C2.93763 34.2583 16.4219 34.2583 16.4219 38.7638V34.2515Z" fill="#000080" stroke="#808080" stroke-width="0.73099"/>
<path d="M9.66303 25.2281H16.4219V29.7404C16.4219 27.4839 13.0397 26.3574 9.66303 25.2281Z" fill="#FF0000" stroke="#808080" stroke-width="0.73099"/>
<path d="M13.4727 58.2351C13.4102 58.245 13.3566 58.2568 13.2929 58.2661C12.9307 58.319 12.5474 58.3634 12.1523 58.3987C11.7573 58.4339 11.3508 58.46 10.936 58.4777C10.5212 58.4953 10.0988 58.5058 9.67743 58.5058C9.25604 58.5058 8.83371 58.4953 8.4189 58.4777C8.00409 58.46 7.59756 58.4339 7.20252 58.3987C6.80749 58.3634 6.42411 58.319 6.06199 58.2661C5.69986 58.2133 5.35829 58.1533 5.04225 58.0828C4.72622 58.0123 4.43661 57.9313 4.17983 57.8431C3.92304 57.755 3.6984 57.6584 3.51405 57.5526C3.42188 57.4998 3.34126 57.4435 3.26965 57.3863C3.19804 57.329 3.13643 57.2703 3.08706 57.2086C3.03768 57.1469 3.0002 57.0829 2.97469 57.0168C2.94986 56.9525 2.93605 56.8879 2.93536 56.8194V52.3071C2.93536 55.4592 9.50557 56.4127 13.4726 58.2351L13.4727 58.2351Z" fill="#FF0000" stroke="#808080" stroke-width="0.73099"/>
<path d="M16.4219 25.2269H2.93763V56.8129C2.93763 59.069 16.4219 59.069 16.4219 56.8129V25.2269Z" fill="url(#paint2_linear_14_72)" stroke="#4D4D4D" stroke-width="0.51169"/>
<path d="M1.58988 19.3065C1.58988 21.4474 2.43706 23.5006 3.94504 25.0145C5.45302 26.5284 7.49827 27.3788 9.63088 27.3788C11.7635 27.3788 13.8087 26.5284 15.3167 25.0145C16.8247 23.5006 17.6719 21.4474 17.6719 19.3065C17.6719 17.1656 16.8247 15.1123 15.3167 13.5985C13.8087 12.0846 11.7635 11.2341 9.63088 11.2341C7.49827 11.2341 5.45302 12.0846 3.94504 13.5985C2.43706 15.1123 1.58988 17.1656 1.58988 19.3065V19.3065Z" fill="url(#paint3_radial_14_72)"/>
<path d="M2.28319 25.9121C2.28319 24.2325 5.83447 24.6403 9.92537 24.6403C14.0163 24.6403 17.0977 24.2324 17.0977 25.9121C17.0977 27.5917 13.781 27.4327 9.69011 27.4327C5.59922 27.4327 2.28319 27.5917 2.28319 25.9121Z" fill="url(#paint4_radial_14_72)"/>
<g filter="url(#filter0_f_14_72)">
<path d="M10.5328 63.468C10.5328 64.1534 11.973 64.5864 13.1397 64.2126C14.3065 63.8388 14.7578 62.7997 14.7578 62.1144C14.7578 61.4291 13.7221 62.0339 12.5554 62.4077C11.3887 62.7815 10.5328 62.7827 10.5328 63.468Z" fill="white"/>
</g>
<g filter="url(#filter1_f_14_72)">
<path d="M11.199 13.9692C11.1603 14.1837 11.3004 14.4559 11.5883 14.7259C11.8763 14.9959 12.2885 15.2416 12.7344 15.409C13.1803 15.5763 13.6232 15.6516 13.9658 15.6183C14.3084 15.5849 14.5226 15.4457 14.5613 15.2312C14.5999 15.0167 14.4599 14.7445 14.1719 14.4745C13.884 14.2045 13.4718 13.9588 13.0259 13.7915C12.58 13.6241 12.1371 13.5488 11.7944 13.5822C11.4518 13.6155 11.2376 13.7547 11.199 13.9692V13.9692Z" fill="white"/>
</g>
</g>
<g clip-path="url(#clip1_14_72)">
<path d="M211.676 63.693C211.676 65.8339 212.523 67.8872 214.031 69.401C215.539 70.9149 217.584 71.7654 219.717 71.7654C221.849 71.7654 223.895 70.9149 225.403 69.401C226.911 67.8872 227.758 65.8339 227.758 63.693C227.758 61.5521 226.911 59.4989 225.403 57.985C223.895 56.4711 221.849 55.6207 219.717 55.6207C217.584 55.6207 215.539 56.4711 214.031 57.985C212.523 59.4989 211.676 61.5521 211.676 63.693V63.693Z" fill="url(#paint5_radial_14_72)"/>
<path d="M211.589 59.366C211.589 61.858 215.211 62.3243 219.679 62.3243C224.147 62.3243 227.77 61.858 227.77 59.366C227.77 56.874 224.147 57.1098 219.679 57.1098C215.211 57.1098 211.589 56.8739 211.589 59.366Z" fill="url(#paint6_radial_14_72)"/>
<path d="M226.422 26.2269H212.938V57.8129C212.938 60.069 226.422 60.069 226.422 57.8129V26.2269Z" fill="white"/>
<path d="M226.422 53.2932C226.422 48.7874 212.938 48.7874 212.938 44.2752V48.7875C212.938 53.3 226.422 53.3 226.422 57.8055V53.2932Z" fill="#000080" stroke="#808080" stroke-width="0.73099"/>
<path d="M226.422 44.2761C226.422 39.7702 212.938 39.7702 212.938 35.2581V39.7703C212.938 44.2829 226.422 44.2829 226.422 48.7884V44.2761Z" fill="#FF0000" stroke="#808080" stroke-width="0.73099"/>
<path d="M226.422 35.2515C226.422 30.7456 212.938 30.7456 212.938 26.2335V30.7457C212.938 35.2583 226.422 35.2583 226.422 39.7638V35.2515Z" fill="#000080" stroke="#808080" stroke-width="0.73099"/>
<path d="M219.663 26.2281H226.422V30.7404C226.422 28.4839 223.04 27.3574 219.663 26.2281Z" fill="#FF0000" stroke="#808080" stroke-width="0.73099"/>
<path d="M223.473 59.2351C223.41 59.245 223.357 59.2568 223.293 59.2661C222.931 59.319 222.547 59.3634 222.152 59.3987C221.757 59.4339 221.351 59.46 220.936 59.4777C220.521 59.4953 220.099 59.5058 219.677 59.5058C219.256 59.5058 218.834 59.4953 218.419 59.4777C218.004 59.46 217.598 59.4339 217.203 59.3987C216.807 59.3634 216.424 59.319 216.062 59.2661C215.7 59.2133 215.358 59.1533 215.042 59.0828C214.726 59.0123 214.437 58.9313 214.18 58.8431C213.923 58.755 213.698 58.6584 213.514 58.5526C213.422 58.4998 213.341 58.4435 213.27 58.3863C213.198 58.329 213.136 58.2703 213.087 58.2086C213.038 58.1469 213 58.0829 212.975 58.0168C212.95 57.9525 212.936 57.8879 212.935 57.8194V53.3071C212.935 56.4592 219.506 57.4127 223.473 59.2351L223.473 59.2351Z" fill="#FF0000" stroke="#808080" stroke-width="0.73099"/>
<path d="M226.422 26.2269H212.938V57.8129C212.938 60.069 226.422 60.069 226.422 57.8129V26.2269Z" fill="url(#paint7_linear_14_72)" stroke="#4D4D4D" stroke-width="0.51169"/>
<path d="M211.59 20.3065C211.59 22.4474 212.437 24.5006 213.945 26.0145C215.453 27.5284 217.498 28.3788 219.631 28.3788C221.763 28.3788 223.809 27.5284 225.317 26.0145C226.825 24.5006 227.672 22.4474 227.672 20.3065C227.672 18.1656 226.825 16.1123 225.317 14.5985C223.809 13.0846 221.763 12.2341 219.631 12.2341C217.498 12.2341 215.453 13.0846 213.945 14.5985C212.437 16.1123 211.59 18.1656 211.59 20.3065V20.3065Z" fill="url(#paint8_radial_14_72)"/>
<path d="M212.283 26.9121C212.283 25.2325 215.834 25.6403 219.925 25.6403C224.016 25.6403 227.098 25.2324 227.098 26.9121C227.098 28.5917 223.781 28.4327 219.69 28.4327C215.599 28.4327 212.283 28.5917 212.283 26.9121Z" fill="url(#paint9_radial_14_72)"/>
<g filter="url(#filter2_f_14_72)">
<path d="M220.533 64.468C220.533 65.1534 221.973 65.5864 223.14 65.2126C224.306 64.8388 224.758 63.7997 224.758 63.1144C224.758 62.4291 223.722 63.0339 222.555 63.4077C221.389 63.7815 220.533 63.7827 220.533 64.468Z" fill="white"/>
</g>
<g filter="url(#filter3_f_14_72)">
<path d="M221.199 14.9692C221.16 15.1837 221.3 15.4559 221.588 15.7259C221.876 15.9959 222.289 16.2416 222.734 16.409C223.18 16.5763 223.623 16.6516 223.966 16.6183C224.308 16.5849 224.523 16.4457 224.561 16.2312C224.6 16.0167 224.46 15.7445 224.172 15.4745C223.884 15.2045 223.472 14.9588 223.026 14.7915C222.58 14.6241 222.137 14.5488 221.794 14.5822C221.452 14.6155 221.238 14.7547 221.199 14.9692V14.9692Z" fill="white"/>
</g>
</g>
<defs>
<filter id="filter0_f_14_72" x="3.42544" y="54.6969" width="18.4382" height="16.7592" filterUnits="userSpaceOnUse" color-interpolation-filters="sRGB">
<feFlood flood-opacity="0" result="BackgroundImageFix"/>
<feBlend mode="normal" in="SourceGraphic" in2="BackgroundImageFix" result="shape"/>
<feGaussianBlur stdDeviation="3.5529" result="effect1_foregroundBlur_14_72"/>
</filter>
<filter id="filter1_f_14_72" x="8.52958" y="10.9126" width="8.69865" height="7.37522" filterUnits="userSpaceOnUse" color-interpolation-filters="sRGB">
<feFlood flood-opacity="0" result="BackgroundImageFix"/>
<feBlend mode="normal" in="SourceGraphic" in2="BackgroundImageFix" result="shape"/>
<feGaussianBlur stdDeviation="1.33091" result="effect1_foregroundBlur_14_72"/>
</filter>
<filter id="filter2_f_14_72" x="213.425" y="55.6969" width="18.4382" height="16.7592" filterUnits="userSpaceOnUse" color-interpolation-filters="sRGB">
<feFlood flood-opacity="0" result="BackgroundImageFix"/>
<feBlend mode="normal" in="SourceGraphic" in2="BackgroundImageFix" result="shape"/>
<feGaussianBlur stdDeviation="3.5529" result="effect1_foregroundBlur_14_72"/>
</filter>
<filter id="filter3_f_14_72" x="218.53" y="11.9126" width="8.69865" height="7.37522" filterUnits="userSpaceOnUse" color-interpolation-filters="sRGB">
<feFlood flood-opacity="0" result="BackgroundImageFix"/>
<feBlend mode="normal" in="SourceGraphic" in2="BackgroundImageFix" result="shape"/>
<feGaussianBlur stdDeviation="1.33091" result="effect1_foregroundBlur_14_72"/>
</filter>
<radialGradient id="paint0_radial_14_72" cx="0" cy="0" r="1" gradientUnits="userSpaceOnUse" gradientTransform="translate(11.6552 62.4385) rotate(180) scale(8.07237 8.10385)">
<stop stop-color="white"/>
<stop offset="1" stop-color="#585858"/>
</radialGradient>
<radialGradient id="paint1_radial_14_72" cx="0" cy="0" r="1" gradientUnits="userSpaceOnUse" gradientTransform="translate(12.3087 59.0683) rotate(176.809) scale(9.93334 2.8483)">
<stop stop-color="white"/>
<stop offset="1" stop-color="#585858"/>
</radialGradient>
<linearGradient id="paint2_linear_14_72" x1="16.4219" y1="-13.7688" x2="2.93763" y2="-13.7688" gradientUnits="userSpaceOnUse">
<stop stop-opacity="0.6718"/>
<stop offset="0.1086" stop-color="#6F6F6F" stop-opacity="0.4"/>
<stop offset="0.2879" stop-color="white" stop-opacity="0.687"/>
<stop offset="0.4847" stop-color="#D2D2D2" stop-opacity="0.3893"/>
<stop offset="0.6521" stop-color="#9A9A9A" stop-opacity="0.2824"/>
<stop offset="1" stop-opacity="0.6947"/>
</linearGradient>
<radialGradient id="paint3_radial_14_72" cx="0" cy="0" r="1" gradientUnits="userSpaceOnUse" gradientTransform="translate(11.8389 16.1642) rotate(180) scale(8.07237 8.10385)">
<stop stop-color="white"/>
<stop offset="1" stop-color="#E2E2E2"/>
</radialGradient>
<radialGradient id="paint4_radial_14_72" cx="0" cy="0" r="1" gradientUnits="userSpaceOnUse" gradientTransform="translate(12.0983 25.4391) rotate(-179.678) scale(9.84694 2.48801)">
<stop stop-color="white"/>
<stop offset="1" stop-color="#585858"/>
</radialGradient>
<radialGradient id="paint5_radial_14_72" cx="0" cy="0" r="1" gradientUnits="userSpaceOnUse" gradientTransform="translate(221.655 63.4385) rotate(180) scale(8.07237 8.10385)">
<stop stop-color="white"/>
<stop offset="1" stop-color="#585858"/>
</radialGradient>
<radialGradient id="paint6_radial_14_72" cx="0" cy="0" r="1" gradientUnits="userSpaceOnUse" gradientTransform="translate(222.309 60.0683) rotate(176.809) scale(9.93334 2.8483)">
<stop stop-color="white"/>
<stop offset="1" stop-color="#585858"/>
</radialGradient>
<linearGradient id="paint7_linear_14_72" x1="226.422" y1="-12.7688" x2="212.938" y2="-12.7688" gradientUnits="userSpaceOnUse">
<stop stop-opacity="0.6718"/>
<stop offset="0.1086" stop-color="#6F6F6F" stop-opacity="0.4"/>
<stop offset="0.2879" stop-color="white" stop-opacity="0.687"/>
<stop offset="0.4847" stop-color="#D2D2D2" stop-opacity="0.3893"/>
<stop offset="0.6521" stop-color="#9A9A9A" stop-opacity="0.2824"/>
<stop offset="1" stop-opacity="0.6947"/>
</linearGradient>
<radialGradient id="paint8_radial_14_72" cx="0" cy="0" r="1" gradientUnits="userSpaceOnUse" gradientTransform="translate(221.839 17.1642) rotate(180) scale(8.07237 8.10385)">
<stop stop-color="white"/>
<stop offset="1" stop-color="#E2E2E2"/>
</radialGradient>
<radialGradient id="paint9_radial_14_72" cx="0" cy="0" r="1" gradientUnits="userSpaceOnUse" gradientTransform="translate(222.098 26.4391) rotate(-179.678) scale(9.84694 2.48801)">
<stop stop-color="white"/>
<stop offset="1" stop-color="#585858"/>
</radialGradient>
<clipPath id="clip0_14_72">
<rect width="19" height="62" fill="white" transform="matrix(-1 0 0 1 19 10)"/>
</clipPath>
<clipPath id="clip1_14_72">
<rect width="19" height="62" fill="white" transform="matrix(-1 0 0 1 229 11)"/>
</clipPath>
</defs>
</svg>
