<svg width="149" height="56" viewBox="0 0 149 56" fill="none" xmlns="http://www.w3.org/2000/svg">
<path d="M26.019 37.2012L24.952 37.3606L24.6211 36.5581L26.6295 35.8985C26.8157 35.8374 27.1004 35.7341 27.4834 35.5887C27.9835 35.3853 28.4419 35.2152 28.8587 35.0783C29.7809 34.7754 30.5543 34.6488 31.1789 34.6984C31.8087 34.7365 32.3199 34.9262 32.7124 35.2676C33.1102 35.5974 33.439 36.0773 33.6987 36.7071C34.1471 37.7943 34.1455 38.7549 33.6941 39.589C33.2515 40.4201 32.414 41.038 31.1814 41.4428C30.6937 41.603 30.3381 41.7051 30.1146 41.7491L31.1661 44.2988L33.0018 43.8429L33.3221 44.6194L28.5337 46.1919L28.2134 45.4154L29.2108 44.9409L26.019 37.2012ZM29.7597 40.9251C29.9814 40.9013 30.3361 40.8093 30.8239 40.6491C31.418 40.454 31.8105 40.0998 32.0015 39.5864C32.1979 39.0614 32.1039 38.333 31.7196 37.4012C31.4207 36.6764 31.0396 36.2039 30.5762 35.9838C30.1182 35.7521 29.5567 35.7455 28.8917 35.9639C28.6434 36.0454 28.3933 36.1471 28.1415 36.269C28.0245 36.327 27.9394 36.3648 27.8862 36.3823L29.7597 40.9251Z" fill="white"/>
<path d="M35.2644 33.4541L34.1776 33.5365L33.9528 32.8146L36.3887 31.8938L36.4294 31.8837L36.8618 32.0501L37.8037 35.0275L38.0707 36.214C38.2738 35.8949 38.5821 35.5688 38.9957 35.2359C39.4182 34.9007 39.8968 34.6668 40.4312 34.5343C41.002 34.3928 41.4791 34.3896 41.8628 34.5249C42.2437 34.6512 42.5642 34.9125 42.8242 35.3088C43.0842 35.7051 43.3252 36.2597 43.5472 36.9726L44.6919 40.6485L45.5991 40.5531L45.8488 41.3551L42.2751 42.2414L42.0253 41.4394L42.776 41.1236L41.6313 37.4477C41.487 36.9843 41.3429 36.6313 41.199 36.3886C41.0551 36.1459 40.8777 35.9835 40.6667 35.9014C40.4648 35.8171 40.2008 35.8154 39.8746 35.8963C39.5938 35.9659 39.3247 36.1046 39.0674 36.3124C38.8164 36.5091 38.6054 36.7246 38.4344 36.959L39.9496 41.8245L40.8159 41.7393L41.0657 42.5413L37.5463 43.414L37.2965 42.612L38.0242 42.3164L35.2644 33.4541Z" fill="white"/>
<path d="M45.9961 32.2629C45.6661 32.3258 45.3819 32.2803 45.1438 32.1264C44.9056 31.9725 44.7506 31.7458 44.6789 31.4463C44.5963 31.1014 44.6379 30.7945 44.8036 30.5256C44.9693 30.2567 45.2355 30.0873 45.6022 30.0174C45.9689 29.9475 46.2725 29.994 46.5128 30.157C46.751 30.3109 46.9048 30.533 46.9744 30.8235C47.0613 31.1866 47.0209 31.498 46.853 31.7578C46.6851 32.0176 46.4041 32.1851 46.0099 32.2603L45.9961 32.2629ZM45.8737 34.9343L44.8353 34.8618L44.6169 33.9496L47.0618 33.1701L47.0893 33.1649L47.5396 33.3638L49.1078 39.9126L50.0553 39.8458L50.2509 40.6627L46.4141 41.3944L46.2184 40.5775L47.1517 40.2714L45.8737 34.9343Z" fill="white"/>
<path d="M50.0525 30.3914L48.9941 30.3681L48.8526 29.6254L51.3556 28.9343L51.3833 28.9301L51.8068 29.1347L53.7276 39.2154L54.759 39.1721L54.9162 39.9972L50.9991 40.5916L50.8418 39.7664L51.7872 39.4957L50.0525 30.3914Z" fill="white"/>
<path d="M56.2667 30.7652C55.9329 30.803 55.6548 30.7359 55.4324 30.5639C55.21 30.392 55.0771 30.1535 55.0337 29.8486C54.9838 29.4975 55.0536 29.1938 55.2433 28.9375C55.433 28.6813 55.7134 28.5322 56.0843 28.4901C56.4553 28.4481 56.7526 28.5177 56.9763 28.6989C57.1987 28.8709 57.3309 29.1047 57.373 29.4004C57.4256 29.77 57.3564 30.0783 57.1653 30.3253C56.9743 30.5723 56.6794 30.7184 56.2806 30.7636L56.2667 30.7652ZM55.8963 33.4267L54.8712 33.2753L54.739 32.3467L57.2413 31.7532L57.2692 31.7501L57.6981 31.9832L58.6469 38.65L59.5947 38.6553L59.713 39.4869L55.8319 39.9267L55.7135 39.0951L56.6695 38.86L55.8963 33.4267Z" fill="white"/>
<path d="M67.9505 34.8356C68.0082 35.6175 67.8981 36.3438 67.6201 37.0145C67.3514 37.6847 66.9193 38.2336 66.3239 38.6613C65.7372 39.079 65.0152 39.3131 64.158 39.3635C63.9717 39.3745 63.7746 39.3674 63.5669 39.3422C63.3692 39.3258 63.208 39.2979 63.0835 39.2584L63.211 40.4148L63.3048 41.6854L64.6169 41.7765L64.6757 42.5723L60.5248 42.8164L60.4661 42.0205L61.3621 41.7996L60.7086 32.9477L59.7816 32.7498L59.7105 31.7864L61.9948 31.3576L62.0228 31.356L62.3928 31.6147L62.4505 32.3965C62.6622 32.0943 62.9604 31.8243 63.3452 31.5867C63.7301 31.3491 64.1601 31.2163 64.6353 31.1883C65.5204 31.1363 66.2705 31.41 66.8856 32.0096C67.5 32.5998 67.8549 33.5418 67.9505 34.8356ZM63.9941 32.3899C63.7145 32.4063 63.4535 32.4825 63.2108 32.6183C62.9682 32.754 62.7872 32.9002 62.6677 33.0568L63.0502 38.2367C63.1223 38.326 63.2585 38.3974 63.459 38.4511C63.6688 38.5042 63.8948 38.5236 64.1371 38.5094C64.7427 38.4738 65.2033 38.1849 65.5189 37.6429C65.8431 37.091 65.9636 36.2519 65.8804 35.1256C65.8103 34.1762 65.6044 33.4778 65.2625 33.0305C64.92 32.5739 64.4972 32.3603 63.9941 32.3899Z" fill="white"/>
<path d="M70.3818 32.9724L70.38 32.7764C70.4911 32.673 70.62 32.4667 70.7666 32.1577C70.9224 31.8393 71.0545 31.4697 71.1628 31.0489C71.271 30.6188 71.3233 30.1984 71.3196 29.7878C71.3186 29.6664 71.285 29.5593 71.2188 29.4665C71.1526 29.3736 71.0536 29.2576 70.9217 29.1185C70.7522 28.9517 70.6202 28.7987 70.5256 28.6593C70.4404 28.5199 70.3968 28.3382 70.3948 28.1142C70.3923 27.8342 70.479 27.605 70.6547 27.4264C70.8398 27.2477 71.0724 27.1574 71.3524 27.1555C71.6324 27.1535 71.8899 27.2497 72.1249 27.444C72.36 27.6384 72.5443 27.9031 72.678 28.2381C72.8209 28.5638 72.894 28.9226 72.8975 29.3146C72.903 29.9306 72.7963 30.5287 72.5774 31.1089C72.3678 31.6797 72.1014 32.1716 71.7784 32.5846C71.4646 32.9881 71.1684 33.2656 70.8897 33.4169L70.3818 32.9724Z" fill="white"/>
<path d="M75.3225 37.9271C75.3918 38.0418 75.5546 38.1553 75.8109 38.2677C76.077 38.3711 76.3453 38.4279 76.6157 38.4381C77.0541 38.4545 77.3847 38.3782 77.6076 38.2092C77.8402 38.0311 77.9636 37.7929 77.9777 37.4946C77.9922 37.187 77.8686 36.9348 77.607 36.7382C77.3457 36.5322 76.9 36.2773 76.2696 35.9734L75.8858 35.7909C75.255 35.4963 74.7901 35.152 74.491 34.7578C74.192 34.3636 74.0568 33.8636 74.0854 33.2576C74.1052 32.838 74.2487 32.4699 74.5159 32.153C74.7836 31.8269 75.1503 31.5791 75.6161 31.4099C76.082 31.2406 76.6133 31.1672 77.2102 31.1896C77.6486 31.2061 78.0203 31.2481 78.3255 31.3156C78.6399 31.3835 78.9675 31.4705 79.3082 31.5767C79.4917 31.649 79.6298 31.6915 79.7226 31.7043L79.6361 33.5363L78.5309 33.4948L78.2593 32.4198C78.2078 32.3245 78.0858 32.2359 77.8935 32.1539C77.7011 32.072 77.4791 32.0263 77.2272 32.0168C76.8448 32.0024 76.5331 32.0748 76.292 32.2338C76.0607 32.3839 75.9382 32.6034 75.9245 32.8924C75.9122 33.1535 75.9812 33.3755 76.1313 33.5586C76.282 33.7324 76.4484 33.8694 76.6305 33.9697C76.8126 34.0699 77.1505 34.2367 77.644 34.4701C78.1375 34.7034 78.5429 34.9241 78.86 35.1322C79.1866 35.3406 79.4496 35.6073 79.6492 35.9324C79.8585 36.2484 79.9526 36.6302 79.9314 37.0777C79.8989 37.7676 79.602 38.3168 79.0408 38.7254C78.4796 39.1339 77.6907 39.319 76.6741 39.2808C76.1984 39.2629 75.7713 39.2048 75.3929 39.1066C75.0238 39.0086 74.5954 38.8804 74.1077 38.722L73.8045 38.6126L73.8917 36.7666L75.0528 36.8103L75.3225 37.9271Z" fill="white"/>
<path d="M89.8956 40.494C88.3242 40.2745 87.204 39.6424 86.5349 38.5977C85.8674 37.5439 85.6756 36.2079 85.9594 34.59C86.1465 33.5236 86.5265 32.6254 87.0997 31.8955C87.6836 31.1577 88.3971 30.6263 89.2401 30.3014C90.0831 29.9765 90.9899 29.8818 91.9605 30.0174C92.3672 30.0742 92.7552 30.1567 93.1246 30.2648C93.4955 30.3637 93.9325 30.4906 94.4356 30.6457C94.8126 30.7642 95.0195 30.8261 95.0565 30.8313L94.4057 33.6506L93.1301 33.4724L93.0462 31.4405C92.9622 31.3252 92.8011 31.2179 92.5628 31.1187C92.3245 31.0195 92.0113 30.9428 91.623 30.8885C90.8373 30.7788 90.1405 31.0535 89.5324 31.7126C88.9352 32.3638 88.5165 33.3743 88.2762 34.744C88.044 36.0678 88.081 37.1796 88.3872 38.0795C88.6934 38.9793 89.281 39.4899 90.1499 39.6112C90.5658 39.6693 90.8912 39.6771 91.1259 39.6346C91.3715 39.5841 91.5858 39.4963 91.7688 39.3712L92.628 38.0361L93.7733 38.3091L93.1211 40.4077C92.9238 40.399 92.7232 40.4086 92.5194 40.4367C92.3265 40.4568 92.2061 40.4683 92.1583 40.471C91.7708 40.5205 91.4104 40.5502 91.0772 40.5602C90.7517 40.5806 90.3578 40.5586 89.8956 40.494Z" fill="white"/>
<path d="M100.889 42.5256C100.588 42.4607 100.386 42.3505 100.284 42.1949C100.181 42.0393 100.164 41.8353 100.232 41.5831L100.33 41.2182C100.004 41.4624 99.5851 41.6535 99.0746 41.7915C98.5666 41.9204 98.0891 41.9368 97.642 41.8405C96.7661 41.6518 96.2008 41.2964 95.9461 40.7744C95.6939 40.2433 95.7067 39.4643 95.9845 38.4372L97.0153 34.6261L96.3822 34.2895L96.5906 33.5192L98.9647 33.8447L98.9784 33.8476L99.201 34.0958L97.9142 38.8528C97.7363 39.5105 97.6942 39.9877 97.7877 40.2844C97.8813 40.581 98.1516 40.7775 98.5987 40.8738C99.137 40.9897 99.6949 40.8906 100.272 40.5764L101.614 35.6166L100.752 35.2164L100.956 34.4596L103.481 34.8175L103.509 34.8234L103.786 35.0833L101.987 41.7324L102.754 41.8975L102.532 42.6648C102.493 42.666 102.314 42.6657 101.996 42.6639C101.678 42.6621 101.309 42.616 100.889 42.5256Z" fill="white"/>
<path d="M105.762 43.7627C105.195 43.6043 104.822 43.3596 104.642 43.0288C104.462 42.6979 104.47 42.2552 104.665 41.7004L106.369 36.8532L105.492 36.6079L105.734 35.9211C105.815 35.9148 105.961 35.9072 106.171 35.8984C106.385 35.8808 106.549 35.8638 106.663 35.8475C106.856 35.7758 107.056 35.6141 107.263 35.3626C107.409 35.2003 107.718 34.7839 108.191 34.1135L109.269 34.4154L108.641 36.372L110.703 36.9494L110.346 37.9664L108.297 37.3928L106.992 41.1042C106.819 41.5973 106.71 41.9489 106.666 42.1589C106.622 42.369 106.634 42.5174 106.702 42.6042C106.773 42.6822 106.921 42.7527 107.146 42.8156C107.371 42.8784 107.612 42.9218 107.87 42.9457C108.131 42.9608 108.355 42.9558 108.542 42.9306L108.538 43.742C108.221 43.8565 107.794 43.9206 107.256 43.9344C106.718 43.9483 106.22 43.891 105.762 43.7627Z" fill="white"/>
<path d="M111.447 44.1185C111.474 44.2455 111.591 44.3982 111.798 44.5766C112.018 44.7494 112.256 44.8793 112.512 44.9662C112.928 45.1071 113.272 45.1304 113.545 45.0362C113.83 44.9364 114.031 44.7491 114.148 44.4743C114.269 44.1909 114.237 43.9199 114.054 43.6612C113.875 43.394 113.535 43.0281 113.035 42.5637L112.729 42.2833C112.225 41.8274 111.898 41.3725 111.748 40.9185C111.597 40.4645 111.64 39.9585 111.878 39.4003C112.043 39.0139 112.308 38.7109 112.675 38.4912C113.045 38.263 113.484 38.1365 113.99 38.1116C114.496 38.0867 115.032 38.1702 115.598 38.3621C116.013 38.5029 116.356 38.6486 116.625 38.799C116.904 38.9525 117.189 39.1276 117.479 39.3243C117.63 39.4444 117.748 39.5237 117.833 39.5623L117.114 41.2496L116.067 40.8944L116.179 39.8121C116.162 39.7082 116.076 39.5905 115.92 39.4589C115.763 39.3272 115.566 39.2209 115.327 39.14C114.965 39.0171 114.64 38.9955 114.353 39.0751C114.079 39.1492 113.885 39.3193 113.772 39.5855C113.669 39.8259 113.659 40.0532 113.739 40.2673C113.824 40.4728 113.936 40.6485 114.076 40.7943C114.217 40.9401 114.483 41.1927 114.876 41.5521C115.27 41.9115 115.583 42.2338 115.815 42.519C116.057 42.8072 116.217 43.1318 116.296 43.4927C116.387 43.848 116.345 44.2318 116.17 44.6439C115.899 45.2794 115.423 45.7077 114.742 45.9288C114.062 46.15 113.239 46.0972 112.276 45.7705C111.825 45.6177 111.435 45.4411 111.106 45.241C110.785 45.0438 110.418 44.8014 110.004 44.5137L109.751 44.3246L110.475 42.6244L111.575 42.9975L111.447 44.1185Z" fill="white"/>
<path d="M13.0385 48.0695C13.0385 49.0709 13.4398 50.0313 14.1541 50.7394C14.8684 51.4475 15.8372 51.8453 16.8474 51.8453C17.8575 51.8453 18.8263 51.4475 19.5407 50.7394C20.255 50.0313 20.6562 49.0709 20.6562 48.0695C20.6562 47.0681 20.255 46.1077 19.5407 45.3996C18.8263 44.6915 17.8575 44.2937 16.8474 44.2937C15.8372 44.2937 14.8684 44.6915 14.1541 45.3996C13.4398 46.1077 13.0385 47.0681 13.0385 48.0695V48.0695Z" fill="url(#paint0_radial_15_629)"/>
<path d="M12.9995 46.0455C12.9995 47.2112 14.7152 47.4293 16.8318 47.4293C18.9483 47.4293 20.6641 47.2111 20.6641 46.0455C20.6641 44.8799 18.9481 44.9902 16.8316 44.9902C14.7151 44.9902 12.9995 44.8799 12.9995 46.0455Z" fill="url(#paint1_radial_15_629)"/>
<path d="M20.0273 30.545H13.6401V45.3191C13.6401 46.3744 20.0273 46.3744 20.0273 45.3191V30.545Z" fill="white"/>
<path d="M20.0273 43.205C20.0273 41.0975 13.6401 41.0975 13.6401 38.9869V41.0975C13.6401 43.2082 20.0273 43.2082 20.0273 45.3156V43.205Z" fill="#000080" stroke="#808080" stroke-width="0.73099"/>
<path d="M20.0273 38.9873C20.0273 36.8798 13.6401 36.8798 13.6401 34.7692V36.8798C13.6401 38.9905 20.0273 38.9905 20.0273 41.0979V38.9873Z" fill="#FF0000" stroke="#808080" stroke-width="0.73099"/>
<path d="M20.0273 34.7662C20.0273 32.6586 13.6401 32.6586 13.6401 30.5481V32.6587C13.6401 34.7694 20.0273 34.7694 20.0273 36.8768V34.7662Z" fill="#000080" stroke="#808080" stroke-width="0.73099"/>
<path d="M16.8219 30.5456H20.0234V32.6562C20.0234 31.6007 18.4213 31.0738 16.8219 30.5456Z" fill="#FF0000" stroke="#808080" stroke-width="0.73099"/>
<path d="M18.6289 45.9843C18.5993 45.9889 18.5739 45.9945 18.5437 45.9988C18.3722 46.0236 18.1906 46.0443 18.0035 46.0608C17.8164 46.0773 17.6238 46.0895 17.4273 46.0978C17.2308 46.106 17.0308 46.1109 16.8312 46.1109C16.6316 46.1109 16.4315 46.106 16.235 46.0978C16.0385 46.0895 15.846 46.0773 15.6588 46.0608C15.4717 46.0443 15.2901 46.0236 15.1186 45.9988C14.9471 45.9741 14.7853 45.9461 14.6356 45.9131C14.4859 45.8801 14.3487 45.8422 14.227 45.801C14.1054 45.7597 13.999 45.7146 13.9117 45.6651C13.868 45.6404 13.8298 45.6141 13.7959 45.5873C13.762 45.5605 13.7328 45.533 13.7094 45.5042C13.686 45.4753 13.6683 45.4454 13.6562 45.4145C13.6444 45.3844 13.6379 45.3542 13.6376 45.3221V43.2115C13.6376 44.6859 16.7498 45.1319 18.6289 45.9843L18.6289 45.9843Z" fill="#FF0000" stroke="#808080" stroke-width="0.73099"/>
<path d="M20.0273 30.545H13.6401V45.3191C13.6401 46.3744 20.0273 46.3744 20.0273 45.3191V30.545Z" fill="url(#paint2_linear_15_629)" stroke="#4D4D4D" stroke-width="0.51169"/>
<path d="M12.9994 27.7758C12.9994 28.7772 13.4007 29.7376 14.115 30.4457C14.8293 31.1538 15.7981 31.5516 16.8083 31.5516C17.8185 31.5516 18.7873 31.1538 19.5016 30.4457C20.2159 29.7376 20.6172 28.7772 20.6172 27.7758C20.6172 26.7744 20.2159 25.814 19.5016 25.1059C18.7873 24.3978 17.8185 24 16.8083 24C15.7981 24 14.8293 24.3978 14.115 25.1059C13.4007 25.814 12.9994 26.7744 12.9994 27.7758V27.7758Z" fill="url(#paint3_radial_15_629)"/>
<path d="M13.3303 30.8655C13.3303 30.0799 15.0125 30.2706 16.9503 30.2706C18.888 30.2706 20.3477 30.0799 20.3477 30.8655C20.3477 31.6512 18.7766 31.5768 16.8388 31.5768C14.901 31.5768 13.3303 31.6511 13.3303 30.8655Z" fill="url(#paint4_radial_15_629)"/>
<g filter="url(#filter0_f_15_629)">
<path d="M17.237 48.432C17.237 48.7526 17.9192 48.9551 18.4718 48.7803C19.0245 48.6054 19.2383 48.1194 19.2383 47.7988C19.2383 47.4783 18.7477 47.7612 18.195 47.936C17.6424 48.1109 17.237 48.1115 17.237 48.432Z" fill="white"/>
</g>
<g filter="url(#filter1_f_15_629)">
<path d="M17.5531 25.2793C17.5348 25.3796 17.6012 25.507 17.7376 25.6332C17.874 25.7595 18.0692 25.8745 18.2804 25.9527C18.4916 26.031 18.7015 26.0662 18.8638 26.0507C19.026 26.0351 19.1275 25.9699 19.1458 25.8696C19.1641 25.7693 19.0978 25.642 18.9614 25.5157C18.825 25.3894 18.6297 25.2745 18.4185 25.1962C18.2073 25.1179 17.9975 25.0827 17.8352 25.0983C17.6729 25.1139 17.5714 25.179 17.5531 25.2793V25.2793Z" fill="white"/>
</g>
<g clip-path="url(#clip0_15_629)">
<path d="M122.796 47.6468C122.796 48.6482 123.198 49.6085 123.912 50.3166C124.626 51.0247 125.595 51.4225 126.605 51.4225C127.615 51.4225 128.584 51.0247 129.298 50.3166C130.013 49.6085 130.414 48.6482 130.414 47.6468C130.414 46.6454 130.013 45.685 129.298 44.9769C128.584 44.2688 127.615 43.871 126.605 43.871C125.595 43.871 124.626 44.2688 123.912 44.9769C123.198 45.685 122.796 46.6454 122.796 47.6468V47.6468Z" fill="url(#paint5_radial_15_629)"/>
<path d="M122.757 45.6228C122.757 46.7884 124.473 47.0065 126.59 47.0065C128.706 47.0065 130.422 46.7884 130.422 45.6228C130.422 44.4572 128.706 44.5675 126.589 44.5675C124.473 44.5675 122.757 44.4571 122.757 45.6228Z" fill="url(#paint6_radial_15_629)"/>
<path d="M129.785 30.1223H123.398V44.8964C123.398 45.9517 129.785 45.9517 129.785 44.8964V30.1223Z" fill="white"/>
<path d="M129.785 42.7823C129.785 40.6747 123.398 40.6747 123.398 38.5642V40.6748C123.398 42.7855 129.785 42.7855 129.785 44.8929V42.7823Z" fill="#000080" stroke="#808080" stroke-width="0.73099"/>
<path d="M129.785 38.5646C129.785 36.457 123.398 36.457 123.398 34.3465V36.4571C123.398 38.5678 129.785 38.5678 129.785 40.6752V38.5646Z" fill="#FF0000" stroke="#808080" stroke-width="0.73099"/>
<path d="M129.785 34.3435C129.785 32.2359 123.398 32.2359 123.398 30.1254V32.2359C123.398 34.3466 129.785 34.3466 129.785 36.4541V34.3435Z" fill="#000080" stroke="#808080" stroke-width="0.73099"/>
<path d="M126.58 30.1229H129.781V32.2334C129.781 31.178 128.179 30.6511 126.58 30.1229Z" fill="#FF0000" stroke="#808080" stroke-width="0.73099"/>
<path d="M128.387 45.5616C128.357 45.5662 128.332 45.5717 128.302 45.5761C128.13 45.6008 127.948 45.6216 127.761 45.6381C127.574 45.6546 127.382 45.6668 127.185 45.675C126.989 45.6833 126.789 45.6882 126.589 45.6882C126.389 45.6882 126.189 45.6833 125.993 45.675C125.796 45.6668 125.604 45.6546 125.417 45.6381C125.23 45.6216 125.048 45.6008 124.876 45.5761C124.705 45.5514 124.543 45.5233 124.393 45.4904C124.244 45.4574 124.106 45.4195 123.985 45.3782C123.863 45.337 123.757 45.2918 123.669 45.2424C123.626 45.2176 123.588 45.1913 123.554 45.1645C123.52 45.1377 123.491 45.1103 123.467 45.0814C123.444 45.0526 123.426 45.0227 123.414 44.9917C123.402 44.9616 123.396 44.9314 123.395 44.8994V42.7888C123.395 44.2632 126.508 44.7092 128.387 45.5616L128.387 45.5616Z" fill="#FF0000" stroke="#808080" stroke-width="0.73099"/>
<path d="M129.785 30.1223H123.398V44.8964C123.398 45.9517 129.785 45.9517 129.785 44.8964V30.1223Z" fill="url(#paint7_linear_15_629)" stroke="#4D4D4D" stroke-width="0.51169"/>
<path d="M122.757 27.3531C122.757 28.3545 123.159 29.3148 123.873 30.0229C124.587 30.731 125.556 31.1288 126.566 31.1288C127.576 31.1288 128.545 30.731 129.259 30.0229C129.974 29.3148 130.375 28.3545 130.375 27.3531C130.375 26.3517 129.974 25.3913 129.259 24.6832C128.545 23.9751 127.576 23.5773 126.566 23.5773C125.556 23.5773 124.587 23.9751 123.873 24.6832C123.159 25.3913 122.757 26.3517 122.757 27.3531V27.3531Z" fill="url(#paint8_radial_15_629)"/>
<path d="M123.088 30.4428C123.088 29.6572 124.77 29.8479 126.708 29.8479C128.646 29.8479 130.105 29.6571 130.105 30.4428C130.105 31.2284 128.534 31.154 126.597 31.154C124.659 31.154 123.088 31.2284 123.088 30.4428Z" fill="url(#paint9_radial_15_629)"/>
<g filter="url(#filter2_f_15_629)">
<path d="M126.995 48.0093C126.995 48.3298 127.677 48.5324 128.23 48.3575C128.782 48.1827 128.996 47.6967 128.996 47.3761C128.996 47.0556 128.506 47.3385 127.953 47.5133C127.4 47.6881 126.995 47.6887 126.995 48.0093Z" fill="white"/>
</g>
<g filter="url(#filter3_f_15_629)">
<path d="M127.311 24.8566C127.293 24.9569 127.359 25.0842 127.495 25.2105C127.632 25.3368 127.827 25.4517 128.038 25.53C128.249 25.6083 128.459 25.6435 128.622 25.6279C128.784 25.6123 128.885 25.5472 128.904 25.4469C128.922 25.3466 128.856 25.2192 128.719 25.093C128.583 24.9667 128.388 24.8517 128.176 24.7735C127.965 24.6952 127.755 24.66 127.593 24.6755C127.431 24.6911 127.329 24.7563 127.311 24.8566V24.8566Z" fill="white"/>
</g>
</g>
<defs>
<filter id="filter0_f_15_629" x="10.1325" y="40.5473" width="16.2116" height="15.4032" filterUnits="userSpaceOnUse" color-interpolation-filters="sRGB">
<feFlood flood-opacity="0" result="BackgroundImageFix"/>
<feBlend mode="normal" in="SourceGraphic" in2="BackgroundImageFix" result="shape"/>
<feGaussianBlur stdDeviation="3.5529" result="effect1_foregroundBlur_15_629"/>
</filter>
<filter id="filter1_f_15_629" x="14.889" y="22.4328" width="6.92131" height="6.28324" filterUnits="userSpaceOnUse" color-interpolation-filters="sRGB">
<feFlood flood-opacity="0" result="BackgroundImageFix"/>
<feBlend mode="normal" in="SourceGraphic" in2="BackgroundImageFix" result="shape"/>
<feGaussianBlur stdDeviation="1.33091" result="effect1_foregroundBlur_15_629"/>
</filter>
<filter id="filter2_f_15_629" x="119.89" y="40.1245" width="16.2116" height="15.4032" filterUnits="userSpaceOnUse" color-interpolation-filters="sRGB">
<feFlood flood-opacity="0" result="BackgroundImageFix"/>
<feBlend mode="normal" in="SourceGraphic" in2="BackgroundImageFix" result="shape"/>
<feGaussianBlur stdDeviation="3.5529" result="effect1_foregroundBlur_15_629"/>
</filter>
<filter id="filter3_f_15_629" x="124.647" y="22.0101" width="6.92131" height="6.28324" filterUnits="userSpaceOnUse" color-interpolation-filters="sRGB">
<feFlood flood-opacity="0" result="BackgroundImageFix"/>
<feBlend mode="normal" in="SourceGraphic" in2="BackgroundImageFix" result="shape"/>
<feGaussianBlur stdDeviation="1.33091" result="effect1_foregroundBlur_15_629"/>
</filter>
<radialGradient id="paint0_radial_15_629" cx="0" cy="0" r="1" gradientUnits="userSpaceOnUse" gradientTransform="translate(17.7655 47.9504) rotate(180) scale(3.82375 3.79051)">
<stop stop-color="white"/>
<stop offset="1" stop-color="#585858"/>
</radialGradient>
<radialGradient id="paint1_radial_15_629" cx="0" cy="0" r="1" gradientUnits="userSpaceOnUse" gradientTransform="translate(18.0774 46.374) rotate(176.849) scale(4.70509 1.33232)">
<stop stop-color="white"/>
<stop offset="1" stop-color="#585858"/>
</radialGradient>
<linearGradient id="paint2_linear_15_629" x1="20.0273" y1="12.3051" x2="13.6401" y2="12.3051" gradientUnits="userSpaceOnUse">
<stop stop-opacity="0.6718"/>
<stop offset="0.1086" stop-color="#6F6F6F" stop-opacity="0.4"/>
<stop offset="0.2879" stop-color="white" stop-opacity="0.687"/>
<stop offset="0.4847" stop-color="#D2D2D2" stop-opacity="0.3893"/>
<stop offset="0.6521" stop-color="#9A9A9A" stop-opacity="0.2824"/>
<stop offset="1" stop-opacity="0.6947"/>
</linearGradient>
<radialGradient id="paint3_radial_15_629" cx="0" cy="0" r="1" gradientUnits="userSpaceOnUse" gradientTransform="translate(17.8542 26.306) rotate(180) scale(3.82375 3.79051)">
<stop stop-color="white"/>
<stop offset="1" stop-color="#E2E2E2"/>
</radialGradient>
<radialGradient id="paint4_radial_15_629" cx="0" cy="0" r="1" gradientUnits="userSpaceOnUse" gradientTransform="translate(17.9795 30.6443) rotate(-179.682) scale(4.66434 1.16375)">
<stop stop-color="white"/>
<stop offset="1" stop-color="#585858"/>
</radialGradient>
<radialGradient id="paint5_radial_15_629" cx="0" cy="0" r="1" gradientUnits="userSpaceOnUse" gradientTransform="translate(127.523 47.5277) rotate(180) scale(3.82375 3.79051)">
<stop stop-color="white"/>
<stop offset="1" stop-color="#585858"/>
</radialGradient>
<radialGradient id="paint6_radial_15_629" cx="0" cy="0" r="1" gradientUnits="userSpaceOnUse" gradientTransform="translate(127.835 45.9513) rotate(176.849) scale(4.70509 1.33232)">
<stop stop-color="white"/>
<stop offset="1" stop-color="#585858"/>
</radialGradient>
<linearGradient id="paint7_linear_15_629" x1="129.785" y1="11.8824" x2="123.398" y2="11.8824" gradientUnits="userSpaceOnUse">
<stop stop-opacity="0.6718"/>
<stop offset="0.1086" stop-color="#6F6F6F" stop-opacity="0.4"/>
<stop offset="0.2879" stop-color="white" stop-opacity="0.687"/>
<stop offset="0.4847" stop-color="#D2D2D2" stop-opacity="0.3893"/>
<stop offset="0.6521" stop-color="#9A9A9A" stop-opacity="0.2824"/>
<stop offset="1" stop-opacity="0.6947"/>
</linearGradient>
<radialGradient id="paint8_radial_15_629" cx="0" cy="0" r="1" gradientUnits="userSpaceOnUse" gradientTransform="translate(127.612 25.8833) rotate(180) scale(3.82375 3.79051)">
<stop stop-color="white"/>
<stop offset="1" stop-color="#E2E2E2"/>
</radialGradient>
<radialGradient id="paint9_radial_15_629" cx="0" cy="0" r="1" gradientUnits="userSpaceOnUse" gradientTransform="translate(127.737 30.2215) rotate(-179.682) scale(4.66434 1.16375)">
<stop stop-color="white"/>
<stop offset="1" stop-color="#585858"/>
</radialGradient>
<clipPath id="clip0_15_629">
<rect width="9" height="29" fill="white" transform="matrix(-1 0 0 1 131.004 23)"/>
</clipPath>
</defs>
</svg>
